M48
; DRILL file {KiCad (5.1.4)-1} date 21.01.2020 14:20:57
; FORMAT={-:-/ absolute / inch / decimal}
; #@! TF.CreationDate,2020-01-21T14:20:57+01:00
; #@! TF.GenerationSoftware,Kicad,Pcbnew,(5.1.4)-1
FMAT,2
INCH
T1C0.0118
T2C0.0315
T3C0.0394
%
G90
G05
T1
X4.16Y-1.88
X4.16Y-1.94
X4.16Y-2.0
X4.16Y-2.06
X4.16Y-2.12
X4.16Y-2.18
X4.16Y-2.24
X4.16Y-2.3
X4.16Y-2.36
X4.16Y-2.42
X4.16Y-2.48
X4.16Y-2.54
X4.16Y-2.6
X4.16Y-2.66
X4.16Y-2.72
X4.16Y-2.78
X4.16Y-2.84
X4.22Y-1.86
X4.22Y-2.12
X4.22Y-2.18
X4.22Y-2.54
X4.22Y-2.6
X4.22Y-2.66
X4.22Y-2.72
X4.22Y-2.84
X4.28Y-1.86
X4.28Y-2.12
X4.28Y-2.18
X4.28Y-2.54
X4.28Y-2.6
X4.28Y-2.66
X4.28Y-2.72
X4.28Y-2.84
X4.34Y-1.86
X4.34Y-2.54
X4.34Y-2.6
X4.34Y-2.66
X4.34Y-2.72
X4.34Y-2.84
X4.36Y-2.06
X4.36Y-2.12
X4.36Y-2.18
X4.36Y-2.26
X4.4Y-1.86
X4.4Y-2.22
X4.4Y-2.54
X4.4Y-2.6
X4.4Y-2.66
X4.4Y-2.72
X4.4Y-2.84
X4.46Y-1.86
X4.46Y-1.98
X4.46Y-2.04
X4.46Y-2.1
X4.46Y-2.36
X4.46Y-2.4
X4.46Y-2.54
X4.46Y-2.6
X4.46Y-2.66
X4.46Y-2.72
X4.46Y-2.84
X4.48Y-2.28
X4.5Y-1.98
X4.5Y-2.06
X4.5Y-2.36
X4.52Y-1.86
X4.52Y-2.22
X4.52Y-2.54
X4.52Y-2.6
X4.52Y-2.66
X4.52Y-2.72
X4.52Y-2.84
X4.54Y-2.02
X4.54Y-2.16
X4.58Y-2.1
X4.58Y-2.14
X4.58Y-2.84
X4.64Y-2.84
X4.66Y-2.1
X4.68Y-1.92
X4.68Y-2.06
X4.7Y-2.84
X4.78Y-2.14
X4.8Y-2.36
X4.82Y-2.18
X4.82Y-2.2302
X4.82Y-2.4
X4.86Y-2.22
X4.88Y-2.82
X4.8967Y-2.3367
X5.0Y-2.52
X5.0423Y-2.48
X5.06Y-1.88
X5.06Y-1.94
X5.06Y-2.0
X5.06Y-2.84
X5.08Y-2.14
X5.12Y-1.88
X5.12Y-1.94
X5.12Y-2.0
X5.12Y-2.06
X5.12Y-2.24
X5.12Y-2.3
X5.12Y-2.36
X5.12Y-2.78
X5.12Y-2.84
T2
X4.24Y-2.48
X4.24Y-2.78
X4.34Y-2.48
X4.34Y-2.78
X4.44Y-2.48
X4.44Y-2.78
T3
X4.98Y-1.98
X4.98Y-2.08
X4.98Y-2.18
X4.98Y-2.28
X4.98Y-2.38
T0
M30
