G04 #@! TF.GenerationSoftware,KiCad,Pcbnew,(5.1.4)-1*
G04 #@! TF.CreationDate,2020-01-21T14:20:48+01:00*
G04 #@! TF.ProjectId,proj,70726f6a-2e6b-4696-9361-645f70636258,rev?*
G04 #@! TF.SameCoordinates,Original*
G04 #@! TF.FileFunction,Soldermask,Top*
G04 #@! TF.FilePolarity,Negative*
%FSLAX46Y46*%
G04 Gerber Fmt 4.6, Leading zero omitted, Abs format (unit mm)*
G04 Created by KiCad (PCBNEW (5.1.4)-1) date 2020-01-21 14:20:48*
%MOMM*%
%LPD*%
G04 APERTURE LIST*
%ADD10C,0.100000*%
G04 APERTURE END LIST*
D10*
G36*
X107862823Y-69773313D02*
G01*
X108023242Y-69821976D01*
X108155906Y-69892886D01*
X108171078Y-69900996D01*
X108300659Y-70007341D01*
X108407004Y-70136922D01*
X108407005Y-70136924D01*
X108486024Y-70284758D01*
X108534687Y-70445177D01*
X108551117Y-70612000D01*
X108534687Y-70778823D01*
X108486024Y-70939242D01*
X108451373Y-71004069D01*
X108407004Y-71087078D01*
X108300659Y-71216659D01*
X108171078Y-71323004D01*
X108171076Y-71323005D01*
X108023242Y-71402024D01*
X107862823Y-71450687D01*
X107737804Y-71463000D01*
X107654196Y-71463000D01*
X107529177Y-71450687D01*
X107368758Y-71402024D01*
X107220924Y-71323005D01*
X107220922Y-71323004D01*
X107091341Y-71216659D01*
X106984996Y-71087078D01*
X106940627Y-71004069D01*
X106905976Y-70939242D01*
X106857313Y-70778823D01*
X106840883Y-70612000D01*
X106857313Y-70445177D01*
X106905976Y-70284758D01*
X106984995Y-70136924D01*
X106984996Y-70136922D01*
X107091341Y-70007341D01*
X107220922Y-69900996D01*
X107236094Y-69892886D01*
X107368758Y-69821976D01*
X107529177Y-69773313D01*
X107654196Y-69761000D01*
X107737804Y-69761000D01*
X107862823Y-69773313D01*
X107862823Y-69773313D01*
G37*
G36*
X110402823Y-69773313D02*
G01*
X110563242Y-69821976D01*
X110695906Y-69892886D01*
X110711078Y-69900996D01*
X110840659Y-70007341D01*
X110947004Y-70136922D01*
X110947005Y-70136924D01*
X111026024Y-70284758D01*
X111074687Y-70445177D01*
X111091117Y-70612000D01*
X111074687Y-70778823D01*
X111026024Y-70939242D01*
X110991373Y-71004069D01*
X110947004Y-71087078D01*
X110840659Y-71216659D01*
X110711078Y-71323004D01*
X110711076Y-71323005D01*
X110563242Y-71402024D01*
X110402823Y-71450687D01*
X110277804Y-71463000D01*
X110194196Y-71463000D01*
X110069177Y-71450687D01*
X109908758Y-71402024D01*
X109760924Y-71323005D01*
X109760922Y-71323004D01*
X109631341Y-71216659D01*
X109524996Y-71087078D01*
X109480627Y-71004069D01*
X109445976Y-70939242D01*
X109397313Y-70778823D01*
X109380883Y-70612000D01*
X109397313Y-70445177D01*
X109445976Y-70284758D01*
X109524995Y-70136924D01*
X109524996Y-70136922D01*
X109631341Y-70007341D01*
X109760922Y-69900996D01*
X109776094Y-69892886D01*
X109908758Y-69821976D01*
X110069177Y-69773313D01*
X110194196Y-69761000D01*
X110277804Y-69761000D01*
X110402823Y-69773313D01*
X110402823Y-69773313D01*
G37*
G36*
X112942823Y-69773313D02*
G01*
X113103242Y-69821976D01*
X113235906Y-69892886D01*
X113251078Y-69900996D01*
X113380659Y-70007341D01*
X113487004Y-70136922D01*
X113487005Y-70136924D01*
X113566024Y-70284758D01*
X113614687Y-70445177D01*
X113631117Y-70612000D01*
X113614687Y-70778823D01*
X113566024Y-70939242D01*
X113531373Y-71004069D01*
X113487004Y-71087078D01*
X113380659Y-71216659D01*
X113251078Y-71323004D01*
X113251076Y-71323005D01*
X113103242Y-71402024D01*
X112942823Y-71450687D01*
X112817804Y-71463000D01*
X112734196Y-71463000D01*
X112609177Y-71450687D01*
X112448758Y-71402024D01*
X112300924Y-71323005D01*
X112300922Y-71323004D01*
X112171341Y-71216659D01*
X112064996Y-71087078D01*
X112020627Y-71004069D01*
X111985976Y-70939242D01*
X111937313Y-70778823D01*
X111920883Y-70612000D01*
X111937313Y-70445177D01*
X111985976Y-70284758D01*
X112064995Y-70136924D01*
X112064996Y-70136922D01*
X112171341Y-70007341D01*
X112300922Y-69900996D01*
X112316094Y-69892886D01*
X112448758Y-69821976D01*
X112609177Y-69773313D01*
X112734196Y-69761000D01*
X112817804Y-69761000D01*
X112942823Y-69773313D01*
X112942823Y-69773313D01*
G37*
G36*
X119251591Y-70178585D02*
G01*
X119285569Y-70188893D01*
X119316890Y-70205634D01*
X119344339Y-70228161D01*
X119366866Y-70255610D01*
X119383607Y-70286931D01*
X119393915Y-70320909D01*
X119398000Y-70362390D01*
X119398000Y-70963610D01*
X119393915Y-71005091D01*
X119383607Y-71039069D01*
X119366866Y-71070390D01*
X119344339Y-71097839D01*
X119316890Y-71120366D01*
X119285569Y-71137107D01*
X119251591Y-71147415D01*
X119210110Y-71151500D01*
X118533890Y-71151500D01*
X118492409Y-71147415D01*
X118458431Y-71137107D01*
X118427110Y-71120366D01*
X118399661Y-71097839D01*
X118377134Y-71070390D01*
X118360393Y-71039069D01*
X118350085Y-71005091D01*
X118346000Y-70963610D01*
X118346000Y-70362390D01*
X118350085Y-70320909D01*
X118360393Y-70286931D01*
X118377134Y-70255610D01*
X118399661Y-70228161D01*
X118427110Y-70205634D01*
X118458431Y-70188893D01*
X118492409Y-70178585D01*
X118533890Y-70174500D01*
X119210110Y-70174500D01*
X119251591Y-70178585D01*
X119251591Y-70178585D01*
G37*
G36*
X120775591Y-70178585D02*
G01*
X120809569Y-70188893D01*
X120840890Y-70205634D01*
X120868339Y-70228161D01*
X120890866Y-70255610D01*
X120907607Y-70286931D01*
X120917915Y-70320909D01*
X120922000Y-70362390D01*
X120922000Y-70963610D01*
X120917915Y-71005091D01*
X120907607Y-71039069D01*
X120890866Y-71070390D01*
X120868339Y-71097839D01*
X120840890Y-71120366D01*
X120809569Y-71137107D01*
X120775591Y-71147415D01*
X120734110Y-71151500D01*
X120057890Y-71151500D01*
X120016409Y-71147415D01*
X119982431Y-71137107D01*
X119951110Y-71120366D01*
X119923661Y-71097839D01*
X119901134Y-71070390D01*
X119884393Y-71039069D01*
X119874085Y-71005091D01*
X119870000Y-70963610D01*
X119870000Y-70362390D01*
X119874085Y-70320909D01*
X119884393Y-70286931D01*
X119901134Y-70255610D01*
X119923661Y-70228161D01*
X119951110Y-70205634D01*
X119982431Y-70188893D01*
X120016409Y-70178585D01*
X120057890Y-70174500D01*
X120734110Y-70174500D01*
X120775591Y-70178585D01*
X120775591Y-70178585D01*
G37*
G36*
X117727591Y-70127585D02*
G01*
X117761569Y-70137893D01*
X117792890Y-70154634D01*
X117820339Y-70177161D01*
X117842866Y-70204610D01*
X117859607Y-70235931D01*
X117869915Y-70269909D01*
X117874000Y-70311390D01*
X117874000Y-70912610D01*
X117869915Y-70954091D01*
X117859607Y-70988069D01*
X117842866Y-71019390D01*
X117820339Y-71046839D01*
X117792890Y-71069366D01*
X117761569Y-71086107D01*
X117727591Y-71096415D01*
X117686110Y-71100500D01*
X117009890Y-71100500D01*
X116968409Y-71096415D01*
X116934431Y-71086107D01*
X116903110Y-71069366D01*
X116875661Y-71046839D01*
X116853134Y-71019390D01*
X116836393Y-70988069D01*
X116826085Y-70954091D01*
X116822000Y-70912610D01*
X116822000Y-70311390D01*
X116826085Y-70269909D01*
X116836393Y-70235931D01*
X116853134Y-70204610D01*
X116875661Y-70177161D01*
X116903110Y-70154634D01*
X116934431Y-70137893D01*
X116968409Y-70127585D01*
X117009890Y-70123500D01*
X117686110Y-70123500D01*
X117727591Y-70127585D01*
X117727591Y-70127585D01*
G37*
G36*
X116203591Y-70127585D02*
G01*
X116237569Y-70137893D01*
X116268890Y-70154634D01*
X116296339Y-70177161D01*
X116318866Y-70204610D01*
X116335607Y-70235931D01*
X116345915Y-70269909D01*
X116350000Y-70311390D01*
X116350000Y-70912610D01*
X116345915Y-70954091D01*
X116335607Y-70988069D01*
X116318866Y-71019390D01*
X116296339Y-71046839D01*
X116268890Y-71069366D01*
X116237569Y-71086107D01*
X116203591Y-71096415D01*
X116162110Y-71100500D01*
X115485890Y-71100500D01*
X115444409Y-71096415D01*
X115410431Y-71086107D01*
X115379110Y-71069366D01*
X115351661Y-71046839D01*
X115329134Y-71019390D01*
X115312393Y-70988069D01*
X115302085Y-70954091D01*
X115298000Y-70912610D01*
X115298000Y-70311390D01*
X115302085Y-70269909D01*
X115312393Y-70235931D01*
X115329134Y-70204610D01*
X115351661Y-70177161D01*
X115379110Y-70154634D01*
X115410431Y-70137893D01*
X115444409Y-70127585D01*
X115485890Y-70123500D01*
X116162110Y-70123500D01*
X116203591Y-70127585D01*
X116203591Y-70127585D01*
G37*
G36*
X125687295Y-70055323D02*
G01*
X125694310Y-70057451D01*
X125700776Y-70060908D01*
X125706442Y-70065558D01*
X125711092Y-70071224D01*
X125714549Y-70077690D01*
X125716677Y-70084705D01*
X125717603Y-70094109D01*
X125722383Y-70118142D01*
X125731761Y-70140781D01*
X125745374Y-70161155D01*
X125762701Y-70178482D01*
X125783076Y-70192096D01*
X125805715Y-70201474D01*
X125829748Y-70206254D01*
X125854252Y-70206254D01*
X125878285Y-70201474D01*
X125900924Y-70192096D01*
X125921298Y-70178483D01*
X125938625Y-70161156D01*
X125952239Y-70140781D01*
X125961617Y-70118142D01*
X125966397Y-70094109D01*
X125967323Y-70084705D01*
X125969451Y-70077690D01*
X125972908Y-70071224D01*
X125977558Y-70065558D01*
X125983224Y-70060908D01*
X125989690Y-70057451D01*
X125996705Y-70055323D01*
X126010140Y-70054000D01*
X126323860Y-70054000D01*
X126337295Y-70055323D01*
X126344310Y-70057451D01*
X126350776Y-70060908D01*
X126356442Y-70065558D01*
X126361092Y-70071224D01*
X126364549Y-70077690D01*
X126366677Y-70084705D01*
X126367603Y-70094109D01*
X126372383Y-70118142D01*
X126381761Y-70140781D01*
X126395374Y-70161155D01*
X126412701Y-70178482D01*
X126433076Y-70192096D01*
X126455715Y-70201474D01*
X126479748Y-70206254D01*
X126504252Y-70206254D01*
X126528285Y-70201474D01*
X126550924Y-70192096D01*
X126571298Y-70178483D01*
X126588625Y-70161156D01*
X126602239Y-70140781D01*
X126611617Y-70118142D01*
X126616397Y-70094109D01*
X126617323Y-70084705D01*
X126619451Y-70077690D01*
X126622908Y-70071224D01*
X126627558Y-70065558D01*
X126633224Y-70060908D01*
X126639690Y-70057451D01*
X126646705Y-70055323D01*
X126660140Y-70054000D01*
X126973860Y-70054000D01*
X126987295Y-70055323D01*
X126994310Y-70057451D01*
X127000776Y-70060908D01*
X127006442Y-70065558D01*
X127011092Y-70071224D01*
X127014549Y-70077690D01*
X127016677Y-70084705D01*
X127017603Y-70094109D01*
X127022383Y-70118142D01*
X127031761Y-70140781D01*
X127045374Y-70161155D01*
X127062701Y-70178482D01*
X127083076Y-70192096D01*
X127105715Y-70201474D01*
X127129748Y-70206254D01*
X127154252Y-70206254D01*
X127178285Y-70201474D01*
X127200924Y-70192096D01*
X127221298Y-70178483D01*
X127238625Y-70161156D01*
X127252239Y-70140781D01*
X127261617Y-70118142D01*
X127266397Y-70094109D01*
X127267323Y-70084705D01*
X127269451Y-70077690D01*
X127272908Y-70071224D01*
X127277558Y-70065558D01*
X127283224Y-70060908D01*
X127289690Y-70057451D01*
X127296705Y-70055323D01*
X127310140Y-70054000D01*
X127623860Y-70054000D01*
X127637295Y-70055323D01*
X127644310Y-70057451D01*
X127650776Y-70060908D01*
X127656442Y-70065558D01*
X127661092Y-70071224D01*
X127664549Y-70077690D01*
X127666677Y-70084705D01*
X127668000Y-70098140D01*
X127668000Y-70961860D01*
X127666677Y-70975295D01*
X127664549Y-70982310D01*
X127661092Y-70988776D01*
X127656442Y-70994442D01*
X127650776Y-70999092D01*
X127644310Y-71002549D01*
X127637295Y-71004677D01*
X127623860Y-71006000D01*
X127310140Y-71006000D01*
X127296705Y-71004677D01*
X127289690Y-71002549D01*
X127283224Y-70999092D01*
X127277558Y-70994442D01*
X127272908Y-70988776D01*
X127269451Y-70982310D01*
X127267323Y-70975295D01*
X127266397Y-70965891D01*
X127261617Y-70941858D01*
X127252239Y-70919219D01*
X127238626Y-70898845D01*
X127221299Y-70881518D01*
X127200924Y-70867904D01*
X127178285Y-70858526D01*
X127154252Y-70853746D01*
X127129748Y-70853746D01*
X127105715Y-70858526D01*
X127083076Y-70867904D01*
X127062702Y-70881517D01*
X127045375Y-70898844D01*
X127031761Y-70919219D01*
X127022383Y-70941858D01*
X127017603Y-70965891D01*
X127016677Y-70975295D01*
X127014549Y-70982310D01*
X127011092Y-70988776D01*
X127006442Y-70994442D01*
X127000776Y-70999092D01*
X126994310Y-71002549D01*
X126987295Y-71004677D01*
X126973860Y-71006000D01*
X126660140Y-71006000D01*
X126646705Y-71004677D01*
X126639690Y-71002549D01*
X126633224Y-70999092D01*
X126627558Y-70994442D01*
X126622908Y-70988776D01*
X126619451Y-70982310D01*
X126617323Y-70975295D01*
X126616397Y-70965891D01*
X126611617Y-70941858D01*
X126602239Y-70919219D01*
X126588626Y-70898845D01*
X126571299Y-70881518D01*
X126550924Y-70867904D01*
X126528285Y-70858526D01*
X126504252Y-70853746D01*
X126479748Y-70853746D01*
X126455715Y-70858526D01*
X126433076Y-70867904D01*
X126412702Y-70881517D01*
X126395375Y-70898844D01*
X126381761Y-70919219D01*
X126372383Y-70941858D01*
X126367603Y-70965891D01*
X126366677Y-70975295D01*
X126364549Y-70982310D01*
X126361092Y-70988776D01*
X126356442Y-70994442D01*
X126350776Y-70999092D01*
X126344310Y-71002549D01*
X126337295Y-71004677D01*
X126323860Y-71006000D01*
X126010140Y-71006000D01*
X125996705Y-71004677D01*
X125989690Y-71002549D01*
X125983224Y-70999092D01*
X125977558Y-70994442D01*
X125972908Y-70988776D01*
X125969451Y-70982310D01*
X125967323Y-70975295D01*
X125966397Y-70965891D01*
X125961617Y-70941858D01*
X125952239Y-70919219D01*
X125938626Y-70898845D01*
X125921299Y-70881518D01*
X125900924Y-70867904D01*
X125878285Y-70858526D01*
X125854252Y-70853746D01*
X125829748Y-70853746D01*
X125805715Y-70858526D01*
X125783076Y-70867904D01*
X125762702Y-70881517D01*
X125745375Y-70898844D01*
X125731761Y-70919219D01*
X125722383Y-70941858D01*
X125717603Y-70965891D01*
X125716677Y-70975295D01*
X125714549Y-70982310D01*
X125711092Y-70988776D01*
X125706442Y-70994442D01*
X125700776Y-70999092D01*
X125694310Y-71002549D01*
X125687295Y-71004677D01*
X125673860Y-71006000D01*
X125360140Y-71006000D01*
X125346705Y-71004677D01*
X125339690Y-71002549D01*
X125333224Y-70999092D01*
X125327558Y-70994442D01*
X125322908Y-70988776D01*
X125319451Y-70982310D01*
X125317323Y-70975295D01*
X125316000Y-70961860D01*
X125316000Y-70098140D01*
X125317323Y-70084705D01*
X125319451Y-70077690D01*
X125322908Y-70071224D01*
X125327558Y-70065558D01*
X125333224Y-70060908D01*
X125339690Y-70057451D01*
X125346705Y-70055323D01*
X125360140Y-70054000D01*
X125673860Y-70054000D01*
X125687295Y-70055323D01*
X125687295Y-70055323D01*
G37*
G36*
X128887295Y-67405323D02*
G01*
X128894310Y-67407451D01*
X128900776Y-67410908D01*
X128906442Y-67415558D01*
X128911092Y-67421224D01*
X128914549Y-67427690D01*
X128916677Y-67434705D01*
X128918000Y-67448140D01*
X128918000Y-67761860D01*
X128916677Y-67775295D01*
X128914549Y-67782310D01*
X128911092Y-67788776D01*
X128906442Y-67794442D01*
X128900776Y-67799092D01*
X128894310Y-67802549D01*
X128887295Y-67804677D01*
X128877891Y-67805603D01*
X128853858Y-67810383D01*
X128831219Y-67819761D01*
X128810845Y-67833374D01*
X128793518Y-67850701D01*
X128779904Y-67871076D01*
X128770526Y-67893715D01*
X128765746Y-67917748D01*
X128765746Y-67942252D01*
X128770526Y-67966285D01*
X128779904Y-67988924D01*
X128793517Y-68009298D01*
X128810844Y-68026625D01*
X128831219Y-68040239D01*
X128853858Y-68049617D01*
X128877891Y-68054397D01*
X128887295Y-68055323D01*
X128894310Y-68057451D01*
X128900776Y-68060908D01*
X128906442Y-68065558D01*
X128911092Y-68071224D01*
X128914549Y-68077690D01*
X128916677Y-68084705D01*
X128918000Y-68098140D01*
X128918000Y-68411860D01*
X128916677Y-68425295D01*
X128914549Y-68432310D01*
X128911092Y-68438776D01*
X128906442Y-68444442D01*
X128900776Y-68449092D01*
X128894310Y-68452549D01*
X128887295Y-68454677D01*
X128877891Y-68455603D01*
X128853858Y-68460383D01*
X128831219Y-68469761D01*
X128810845Y-68483374D01*
X128793518Y-68500701D01*
X128779904Y-68521076D01*
X128770526Y-68543715D01*
X128765746Y-68567748D01*
X128765746Y-68592252D01*
X128770526Y-68616285D01*
X128779904Y-68638924D01*
X128793517Y-68659298D01*
X128810844Y-68676625D01*
X128831219Y-68690239D01*
X128853858Y-68699617D01*
X128877891Y-68704397D01*
X128887295Y-68705323D01*
X128894310Y-68707451D01*
X128900776Y-68710908D01*
X128906442Y-68715558D01*
X128911092Y-68721224D01*
X128914549Y-68727690D01*
X128916677Y-68734705D01*
X128918000Y-68748140D01*
X128918000Y-69061860D01*
X128916677Y-69075295D01*
X128914549Y-69082310D01*
X128911092Y-69088776D01*
X128906442Y-69094442D01*
X128900776Y-69099092D01*
X128894310Y-69102549D01*
X128887295Y-69104677D01*
X128877891Y-69105603D01*
X128853858Y-69110383D01*
X128831219Y-69119761D01*
X128810845Y-69133374D01*
X128793518Y-69150701D01*
X128779904Y-69171076D01*
X128770526Y-69193715D01*
X128765746Y-69217748D01*
X128765746Y-69242252D01*
X128770526Y-69266285D01*
X128779904Y-69288924D01*
X128793517Y-69309298D01*
X128810844Y-69326625D01*
X128831219Y-69340239D01*
X128853858Y-69349617D01*
X128877891Y-69354397D01*
X128887295Y-69355323D01*
X128894310Y-69357451D01*
X128900776Y-69360908D01*
X128906442Y-69365558D01*
X128911092Y-69371224D01*
X128914549Y-69377690D01*
X128916677Y-69384705D01*
X128918000Y-69398140D01*
X128918000Y-69711860D01*
X128916677Y-69725295D01*
X128914549Y-69732310D01*
X128911092Y-69738776D01*
X128906442Y-69744442D01*
X128900776Y-69749092D01*
X128894310Y-69752549D01*
X128887295Y-69754677D01*
X128873860Y-69756000D01*
X128010140Y-69756000D01*
X127996705Y-69754677D01*
X127989690Y-69752549D01*
X127983224Y-69749092D01*
X127977558Y-69744442D01*
X127972908Y-69738776D01*
X127969451Y-69732310D01*
X127967323Y-69725295D01*
X127966000Y-69711860D01*
X127966000Y-69398140D01*
X127967323Y-69384705D01*
X127969451Y-69377690D01*
X127972908Y-69371224D01*
X127977558Y-69365558D01*
X127983224Y-69360908D01*
X127989690Y-69357451D01*
X127996705Y-69355323D01*
X128006109Y-69354397D01*
X128030142Y-69349617D01*
X128052781Y-69340239D01*
X128073155Y-69326626D01*
X128090482Y-69309299D01*
X128104096Y-69288924D01*
X128113474Y-69266285D01*
X128118254Y-69242252D01*
X128118254Y-69217748D01*
X128113474Y-69193715D01*
X128104096Y-69171076D01*
X128090483Y-69150702D01*
X128073156Y-69133375D01*
X128052781Y-69119761D01*
X128030142Y-69110383D01*
X128006109Y-69105603D01*
X127996705Y-69104677D01*
X127989690Y-69102549D01*
X127983224Y-69099092D01*
X127977558Y-69094442D01*
X127972908Y-69088776D01*
X127969451Y-69082310D01*
X127967323Y-69075295D01*
X127966000Y-69061860D01*
X127966000Y-68748140D01*
X127967323Y-68734705D01*
X127969451Y-68727690D01*
X127972908Y-68721224D01*
X127977558Y-68715558D01*
X127983224Y-68710908D01*
X127989690Y-68707451D01*
X127996705Y-68705323D01*
X128006109Y-68704397D01*
X128030142Y-68699617D01*
X128052781Y-68690239D01*
X128073155Y-68676626D01*
X128090482Y-68659299D01*
X128104096Y-68638924D01*
X128113474Y-68616285D01*
X128118254Y-68592252D01*
X128118254Y-68567748D01*
X128113474Y-68543715D01*
X128104096Y-68521076D01*
X128090483Y-68500702D01*
X128073156Y-68483375D01*
X128052781Y-68469761D01*
X128030142Y-68460383D01*
X128006109Y-68455603D01*
X127996705Y-68454677D01*
X127989690Y-68452549D01*
X127983224Y-68449092D01*
X127977558Y-68444442D01*
X127972908Y-68438776D01*
X127969451Y-68432310D01*
X127967323Y-68425295D01*
X127966000Y-68411860D01*
X127966000Y-68098140D01*
X127967323Y-68084705D01*
X127969451Y-68077690D01*
X127972908Y-68071224D01*
X127977558Y-68065558D01*
X127983224Y-68060908D01*
X127989690Y-68057451D01*
X127996705Y-68055323D01*
X128006109Y-68054397D01*
X128030142Y-68049617D01*
X128052781Y-68040239D01*
X128073155Y-68026626D01*
X128090482Y-68009299D01*
X128104096Y-67988924D01*
X128113474Y-67966285D01*
X128118254Y-67942252D01*
X128118254Y-67917748D01*
X128113474Y-67893715D01*
X128104096Y-67871076D01*
X128090483Y-67850702D01*
X128073156Y-67833375D01*
X128052781Y-67819761D01*
X128030142Y-67810383D01*
X128006109Y-67805603D01*
X127996705Y-67804677D01*
X127989690Y-67802549D01*
X127983224Y-67799092D01*
X127977558Y-67794442D01*
X127972908Y-67788776D01*
X127969451Y-67782310D01*
X127967323Y-67775295D01*
X127966000Y-67761860D01*
X127966000Y-67448140D01*
X127967323Y-67434705D01*
X127969451Y-67427690D01*
X127972908Y-67421224D01*
X127977558Y-67415558D01*
X127983224Y-67410908D01*
X127989690Y-67407451D01*
X127996705Y-67405323D01*
X128010140Y-67404000D01*
X128873860Y-67404000D01*
X128887295Y-67405323D01*
X128887295Y-67405323D01*
G37*
G36*
X124987295Y-67405323D02*
G01*
X124994310Y-67407451D01*
X125000776Y-67410908D01*
X125006442Y-67415558D01*
X125011092Y-67421224D01*
X125014549Y-67427690D01*
X125016677Y-67434705D01*
X125018000Y-67448140D01*
X125018000Y-67761860D01*
X125016677Y-67775295D01*
X125014549Y-67782310D01*
X125011092Y-67788776D01*
X125006442Y-67794442D01*
X125000776Y-67799092D01*
X124994310Y-67802549D01*
X124987295Y-67804677D01*
X124977891Y-67805603D01*
X124953858Y-67810383D01*
X124931219Y-67819761D01*
X124910845Y-67833374D01*
X124893518Y-67850701D01*
X124879904Y-67871076D01*
X124870526Y-67893715D01*
X124865746Y-67917748D01*
X124865746Y-67942252D01*
X124870526Y-67966285D01*
X124879904Y-67988924D01*
X124893517Y-68009298D01*
X124910844Y-68026625D01*
X124931219Y-68040239D01*
X124953858Y-68049617D01*
X124977891Y-68054397D01*
X124987295Y-68055323D01*
X124994310Y-68057451D01*
X125000776Y-68060908D01*
X125006442Y-68065558D01*
X125011092Y-68071224D01*
X125014549Y-68077690D01*
X125016677Y-68084705D01*
X125018000Y-68098140D01*
X125018000Y-68411860D01*
X125016677Y-68425295D01*
X125014549Y-68432310D01*
X125011092Y-68438776D01*
X125006442Y-68444442D01*
X125000776Y-68449092D01*
X124994310Y-68452549D01*
X124987295Y-68454677D01*
X124977891Y-68455603D01*
X124953858Y-68460383D01*
X124931219Y-68469761D01*
X124910845Y-68483374D01*
X124893518Y-68500701D01*
X124879904Y-68521076D01*
X124870526Y-68543715D01*
X124865746Y-68567748D01*
X124865746Y-68592252D01*
X124870526Y-68616285D01*
X124879904Y-68638924D01*
X124893517Y-68659298D01*
X124910844Y-68676625D01*
X124931219Y-68690239D01*
X124953858Y-68699617D01*
X124977891Y-68704397D01*
X124987295Y-68705323D01*
X124994310Y-68707451D01*
X125000776Y-68710908D01*
X125006442Y-68715558D01*
X125011092Y-68721224D01*
X125014549Y-68727690D01*
X125016677Y-68734705D01*
X125018000Y-68748140D01*
X125018000Y-69061860D01*
X125016677Y-69075295D01*
X125014549Y-69082310D01*
X125011092Y-69088776D01*
X125006442Y-69094442D01*
X125000776Y-69099092D01*
X124994310Y-69102549D01*
X124987295Y-69104677D01*
X124977891Y-69105603D01*
X124953858Y-69110383D01*
X124931219Y-69119761D01*
X124910845Y-69133374D01*
X124893518Y-69150701D01*
X124879904Y-69171076D01*
X124870526Y-69193715D01*
X124865746Y-69217748D01*
X124865746Y-69242252D01*
X124870526Y-69266285D01*
X124879904Y-69288924D01*
X124893517Y-69309298D01*
X124910844Y-69326625D01*
X124931219Y-69340239D01*
X124953858Y-69349617D01*
X124977891Y-69354397D01*
X124987295Y-69355323D01*
X124994310Y-69357451D01*
X125000776Y-69360908D01*
X125006442Y-69365558D01*
X125011092Y-69371224D01*
X125014549Y-69377690D01*
X125016677Y-69384705D01*
X125018000Y-69398140D01*
X125018000Y-69711860D01*
X125016677Y-69725295D01*
X125014549Y-69732310D01*
X125011092Y-69738776D01*
X125006442Y-69744442D01*
X125000776Y-69749092D01*
X124994310Y-69752549D01*
X124987295Y-69754677D01*
X124973860Y-69756000D01*
X124110140Y-69756000D01*
X124096705Y-69754677D01*
X124089690Y-69752549D01*
X124083224Y-69749092D01*
X124077558Y-69744442D01*
X124072908Y-69738776D01*
X124069451Y-69732310D01*
X124067323Y-69725295D01*
X124066000Y-69711860D01*
X124066000Y-69398140D01*
X124067323Y-69384705D01*
X124069451Y-69377690D01*
X124072908Y-69371224D01*
X124077558Y-69365558D01*
X124083224Y-69360908D01*
X124089690Y-69357451D01*
X124096705Y-69355323D01*
X124106109Y-69354397D01*
X124130142Y-69349617D01*
X124152781Y-69340239D01*
X124173155Y-69326626D01*
X124190482Y-69309299D01*
X124204096Y-69288924D01*
X124213474Y-69266285D01*
X124218254Y-69242252D01*
X124218254Y-69217748D01*
X124213474Y-69193715D01*
X124204096Y-69171076D01*
X124190483Y-69150702D01*
X124173156Y-69133375D01*
X124152781Y-69119761D01*
X124130142Y-69110383D01*
X124106109Y-69105603D01*
X124096705Y-69104677D01*
X124089690Y-69102549D01*
X124083224Y-69099092D01*
X124077558Y-69094442D01*
X124072908Y-69088776D01*
X124069451Y-69082310D01*
X124067323Y-69075295D01*
X124066000Y-69061860D01*
X124066000Y-68748140D01*
X124067323Y-68734705D01*
X124069451Y-68727690D01*
X124072908Y-68721224D01*
X124077558Y-68715558D01*
X124083224Y-68710908D01*
X124089690Y-68707451D01*
X124096705Y-68705323D01*
X124106109Y-68704397D01*
X124130142Y-68699617D01*
X124152781Y-68690239D01*
X124173155Y-68676626D01*
X124190482Y-68659299D01*
X124204096Y-68638924D01*
X124213474Y-68616285D01*
X124218254Y-68592252D01*
X124218254Y-68567748D01*
X124213474Y-68543715D01*
X124204096Y-68521076D01*
X124190483Y-68500702D01*
X124173156Y-68483375D01*
X124152781Y-68469761D01*
X124130142Y-68460383D01*
X124106109Y-68455603D01*
X124096705Y-68454677D01*
X124089690Y-68452549D01*
X124083224Y-68449092D01*
X124077558Y-68444442D01*
X124072908Y-68438776D01*
X124069451Y-68432310D01*
X124067323Y-68425295D01*
X124066000Y-68411860D01*
X124066000Y-68098140D01*
X124067323Y-68084705D01*
X124069451Y-68077690D01*
X124072908Y-68071224D01*
X124077558Y-68065558D01*
X124083224Y-68060908D01*
X124089690Y-68057451D01*
X124096705Y-68055323D01*
X124106109Y-68054397D01*
X124130142Y-68049617D01*
X124152781Y-68040239D01*
X124173155Y-68026626D01*
X124190482Y-68009299D01*
X124204096Y-67988924D01*
X124213474Y-67966285D01*
X124218254Y-67942252D01*
X124218254Y-67917748D01*
X124213474Y-67893715D01*
X124204096Y-67871076D01*
X124190483Y-67850702D01*
X124173156Y-67833375D01*
X124152781Y-67819761D01*
X124130142Y-67810383D01*
X124106109Y-67805603D01*
X124096705Y-67804677D01*
X124089690Y-67802549D01*
X124083224Y-67799092D01*
X124077558Y-67794442D01*
X124072908Y-67788776D01*
X124069451Y-67782310D01*
X124067323Y-67775295D01*
X124066000Y-67761860D01*
X124066000Y-67448140D01*
X124067323Y-67434705D01*
X124069451Y-67427690D01*
X124072908Y-67421224D01*
X124077558Y-67415558D01*
X124083224Y-67410908D01*
X124089690Y-67407451D01*
X124096705Y-67405323D01*
X124110140Y-67404000D01*
X124973860Y-67404000D01*
X124987295Y-67405323D01*
X124987295Y-67405323D01*
G37*
G36*
X127458631Y-67482798D02*
G01*
X127489811Y-67492256D01*
X127518537Y-67507611D01*
X127543721Y-67528279D01*
X127564389Y-67553463D01*
X127579744Y-67582189D01*
X127589202Y-67613369D01*
X127593000Y-67651929D01*
X127593000Y-69508071D01*
X127589202Y-69546631D01*
X127579744Y-69577811D01*
X127564389Y-69606537D01*
X127543721Y-69631721D01*
X127518537Y-69652389D01*
X127489811Y-69667744D01*
X127458631Y-69677202D01*
X127420071Y-69681000D01*
X125563929Y-69681000D01*
X125525369Y-69677202D01*
X125494189Y-69667744D01*
X125465463Y-69652389D01*
X125440279Y-69631721D01*
X125419611Y-69606537D01*
X125404256Y-69577811D01*
X125394798Y-69546631D01*
X125391000Y-69508071D01*
X125391000Y-67651929D01*
X125394798Y-67613369D01*
X125404256Y-67582189D01*
X125419611Y-67553463D01*
X125440279Y-67528279D01*
X125465463Y-67507611D01*
X125494189Y-67492256D01*
X125525369Y-67482798D01*
X125563929Y-67479000D01*
X127420071Y-67479000D01*
X127458631Y-67482798D01*
X127458631Y-67482798D01*
G37*
G36*
X119251591Y-68603585D02*
G01*
X119285569Y-68613893D01*
X119316890Y-68630634D01*
X119344339Y-68653161D01*
X119366866Y-68680610D01*
X119383607Y-68711931D01*
X119393915Y-68745909D01*
X119398000Y-68787390D01*
X119398000Y-69388610D01*
X119393915Y-69430091D01*
X119383607Y-69464069D01*
X119366866Y-69495390D01*
X119344339Y-69522839D01*
X119316890Y-69545366D01*
X119285569Y-69562107D01*
X119251591Y-69572415D01*
X119210110Y-69576500D01*
X118533890Y-69576500D01*
X118492409Y-69572415D01*
X118458431Y-69562107D01*
X118427110Y-69545366D01*
X118399661Y-69522839D01*
X118377134Y-69495390D01*
X118360393Y-69464069D01*
X118350085Y-69430091D01*
X118346000Y-69388610D01*
X118346000Y-68787390D01*
X118350085Y-68745909D01*
X118360393Y-68711931D01*
X118377134Y-68680610D01*
X118399661Y-68653161D01*
X118427110Y-68630634D01*
X118458431Y-68613893D01*
X118492409Y-68603585D01*
X118533890Y-68599500D01*
X119210110Y-68599500D01*
X119251591Y-68603585D01*
X119251591Y-68603585D01*
G37*
G36*
X120775591Y-68603585D02*
G01*
X120809569Y-68613893D01*
X120840890Y-68630634D01*
X120868339Y-68653161D01*
X120890866Y-68680610D01*
X120907607Y-68711931D01*
X120917915Y-68745909D01*
X120922000Y-68787390D01*
X120922000Y-69388610D01*
X120917915Y-69430091D01*
X120907607Y-69464069D01*
X120890866Y-69495390D01*
X120868339Y-69522839D01*
X120840890Y-69545366D01*
X120809569Y-69562107D01*
X120775591Y-69572415D01*
X120734110Y-69576500D01*
X120057890Y-69576500D01*
X120016409Y-69572415D01*
X119982431Y-69562107D01*
X119951110Y-69545366D01*
X119923661Y-69522839D01*
X119901134Y-69495390D01*
X119884393Y-69464069D01*
X119874085Y-69430091D01*
X119870000Y-69388610D01*
X119870000Y-68787390D01*
X119874085Y-68745909D01*
X119884393Y-68711931D01*
X119901134Y-68680610D01*
X119923661Y-68653161D01*
X119951110Y-68630634D01*
X119982431Y-68613893D01*
X120016409Y-68603585D01*
X120057890Y-68599500D01*
X120734110Y-68599500D01*
X120775591Y-68603585D01*
X120775591Y-68603585D01*
G37*
G36*
X116203591Y-68552585D02*
G01*
X116237569Y-68562893D01*
X116268890Y-68579634D01*
X116296339Y-68602161D01*
X116318866Y-68629610D01*
X116335607Y-68660931D01*
X116345915Y-68694909D01*
X116350000Y-68736390D01*
X116350000Y-69337610D01*
X116345915Y-69379091D01*
X116335607Y-69413069D01*
X116318866Y-69444390D01*
X116296339Y-69471839D01*
X116268890Y-69494366D01*
X116237569Y-69511107D01*
X116203591Y-69521415D01*
X116162110Y-69525500D01*
X115485890Y-69525500D01*
X115444409Y-69521415D01*
X115410431Y-69511107D01*
X115379110Y-69494366D01*
X115351661Y-69471839D01*
X115329134Y-69444390D01*
X115312393Y-69413069D01*
X115302085Y-69379091D01*
X115298000Y-69337610D01*
X115298000Y-68736390D01*
X115302085Y-68694909D01*
X115312393Y-68660931D01*
X115329134Y-68629610D01*
X115351661Y-68602161D01*
X115379110Y-68579634D01*
X115410431Y-68562893D01*
X115444409Y-68552585D01*
X115485890Y-68548500D01*
X116162110Y-68548500D01*
X116203591Y-68552585D01*
X116203591Y-68552585D01*
G37*
G36*
X117727591Y-68552585D02*
G01*
X117761569Y-68562893D01*
X117792890Y-68579634D01*
X117820339Y-68602161D01*
X117842866Y-68629610D01*
X117859607Y-68660931D01*
X117869915Y-68694909D01*
X117874000Y-68736390D01*
X117874000Y-69337610D01*
X117869915Y-69379091D01*
X117859607Y-69413069D01*
X117842866Y-69444390D01*
X117820339Y-69471839D01*
X117792890Y-69494366D01*
X117761569Y-69511107D01*
X117727591Y-69521415D01*
X117686110Y-69525500D01*
X117009890Y-69525500D01*
X116968409Y-69521415D01*
X116934431Y-69511107D01*
X116903110Y-69494366D01*
X116875661Y-69471839D01*
X116853134Y-69444390D01*
X116836393Y-69413069D01*
X116826085Y-69379091D01*
X116822000Y-69337610D01*
X116822000Y-68736390D01*
X116826085Y-68694909D01*
X116836393Y-68660931D01*
X116853134Y-68629610D01*
X116875661Y-68602161D01*
X116903110Y-68579634D01*
X116934431Y-68562893D01*
X116968409Y-68552585D01*
X117009890Y-68548500D01*
X117686110Y-68548500D01*
X117727591Y-68552585D01*
X117727591Y-68552585D01*
G37*
G36*
X122846170Y-68838803D02*
G01*
X122857877Y-68842355D01*
X122877077Y-68852617D01*
X122899716Y-68861994D01*
X122923749Y-68866774D01*
X122948253Y-68866774D01*
X122972286Y-68861993D01*
X122994923Y-68852617D01*
X123014123Y-68842355D01*
X123025830Y-68838803D01*
X123044138Y-68837000D01*
X123467862Y-68837000D01*
X123486170Y-68838803D01*
X123497875Y-68842354D01*
X123508665Y-68848121D01*
X123518119Y-68855881D01*
X123525879Y-68865335D01*
X123531646Y-68876125D01*
X123535197Y-68887830D01*
X123537000Y-68906138D01*
X123537000Y-69269862D01*
X123535197Y-69288170D01*
X123531646Y-69299875D01*
X123525879Y-69310665D01*
X123518119Y-69320119D01*
X123508665Y-69327879D01*
X123497875Y-69333646D01*
X123486170Y-69337197D01*
X123467862Y-69339000D01*
X123044138Y-69339000D01*
X123025830Y-69337197D01*
X123014123Y-69333645D01*
X122994923Y-69323383D01*
X122972284Y-69314006D01*
X122948251Y-69309226D01*
X122923747Y-69309226D01*
X122899714Y-69314007D01*
X122877077Y-69323383D01*
X122857877Y-69333645D01*
X122846170Y-69337197D01*
X122827862Y-69339000D01*
X122404138Y-69339000D01*
X122385830Y-69337197D01*
X122374125Y-69333646D01*
X122363335Y-69327879D01*
X122353881Y-69320119D01*
X122346121Y-69310665D01*
X122340354Y-69299875D01*
X122336803Y-69288170D01*
X122335000Y-69269862D01*
X122335000Y-68906138D01*
X122336803Y-68887830D01*
X122340354Y-68876125D01*
X122346121Y-68865335D01*
X122353881Y-68855881D01*
X122363335Y-68848121D01*
X122374125Y-68842354D01*
X122385830Y-68838803D01*
X122404138Y-68837000D01*
X122827862Y-68837000D01*
X122846170Y-68838803D01*
X122846170Y-68838803D01*
G37*
G36*
X129740170Y-67309803D02*
G01*
X129751875Y-67313354D01*
X129762665Y-67319121D01*
X129772119Y-67326881D01*
X129779879Y-67336335D01*
X129785646Y-67347125D01*
X129789197Y-67358830D01*
X129791000Y-67377138D01*
X129791000Y-67800862D01*
X129789197Y-67819170D01*
X129785645Y-67830877D01*
X129775383Y-67850077D01*
X129766006Y-67872716D01*
X129761226Y-67896749D01*
X129761226Y-67921253D01*
X129766007Y-67945286D01*
X129775383Y-67967923D01*
X129785645Y-67987123D01*
X129789197Y-67998830D01*
X129791000Y-68017138D01*
X129791000Y-68440862D01*
X129789197Y-68459170D01*
X129785646Y-68470875D01*
X129779879Y-68481665D01*
X129772119Y-68491119D01*
X129762665Y-68498879D01*
X129751875Y-68504646D01*
X129740170Y-68508197D01*
X129721862Y-68510000D01*
X129358138Y-68510000D01*
X129339830Y-68508197D01*
X129328125Y-68504646D01*
X129317335Y-68498879D01*
X129307881Y-68491119D01*
X129300121Y-68481665D01*
X129294354Y-68470875D01*
X129290803Y-68459170D01*
X129289000Y-68440862D01*
X129289000Y-68017138D01*
X129290803Y-67998830D01*
X129294355Y-67987123D01*
X129304617Y-67967923D01*
X129313994Y-67945284D01*
X129318774Y-67921251D01*
X129318774Y-67896747D01*
X129313993Y-67872714D01*
X129304617Y-67850077D01*
X129294355Y-67830877D01*
X129290803Y-67819170D01*
X129289000Y-67800862D01*
X129289000Y-67377138D01*
X129290803Y-67358830D01*
X129294354Y-67347125D01*
X129300121Y-67336335D01*
X129307881Y-67326881D01*
X129317335Y-67319121D01*
X129328125Y-67313354D01*
X129339830Y-67309803D01*
X129358138Y-67308000D01*
X129721862Y-67308000D01*
X129740170Y-67309803D01*
X129740170Y-67309803D01*
G37*
G36*
X120730618Y-66751465D02*
G01*
X120763433Y-66761419D01*
X120793665Y-66777579D01*
X120820170Y-66799330D01*
X120841921Y-66825835D01*
X120858081Y-66856067D01*
X120868035Y-66888882D01*
X120872000Y-66929140D01*
X120872000Y-67892860D01*
X120868035Y-67933118D01*
X120858081Y-67965933D01*
X120841921Y-67996165D01*
X120820170Y-68022670D01*
X120793665Y-68044421D01*
X120763433Y-68060581D01*
X120730618Y-68070535D01*
X120690360Y-68074500D01*
X120101640Y-68074500D01*
X120061382Y-68070535D01*
X120028567Y-68060581D01*
X119998335Y-68044421D01*
X119971830Y-68022670D01*
X119950079Y-67996165D01*
X119933919Y-67965933D01*
X119923965Y-67933118D01*
X119920000Y-67892860D01*
X119920000Y-66929140D01*
X119923965Y-66888882D01*
X119933919Y-66856067D01*
X119950079Y-66825835D01*
X119971830Y-66799330D01*
X119998335Y-66777579D01*
X120028567Y-66761419D01*
X120061382Y-66751465D01*
X120101640Y-66747500D01*
X120690360Y-66747500D01*
X120730618Y-66751465D01*
X120730618Y-66751465D01*
G37*
G36*
X116158618Y-66751465D02*
G01*
X116191433Y-66761419D01*
X116221665Y-66777579D01*
X116248170Y-66799330D01*
X116269921Y-66825835D01*
X116286081Y-66856067D01*
X116296035Y-66888882D01*
X116300000Y-66929140D01*
X116300000Y-67892860D01*
X116296035Y-67933118D01*
X116286081Y-67965933D01*
X116269921Y-67996165D01*
X116248170Y-68022670D01*
X116221665Y-68044421D01*
X116191433Y-68060581D01*
X116158618Y-68070535D01*
X116118360Y-68074500D01*
X115529640Y-68074500D01*
X115489382Y-68070535D01*
X115456567Y-68060581D01*
X115426335Y-68044421D01*
X115399830Y-68022670D01*
X115378079Y-67996165D01*
X115361919Y-67965933D01*
X115351965Y-67933118D01*
X115348000Y-67892860D01*
X115348000Y-66929140D01*
X115351965Y-66888882D01*
X115361919Y-66856067D01*
X115378079Y-66825835D01*
X115399830Y-66799330D01*
X115426335Y-66777579D01*
X115456567Y-66761419D01*
X115489382Y-66751465D01*
X115529640Y-66747500D01*
X116118360Y-66747500D01*
X116158618Y-66751465D01*
X116158618Y-66751465D01*
G37*
G36*
X119206618Y-66751465D02*
G01*
X119239433Y-66761419D01*
X119269665Y-66777579D01*
X119296170Y-66799330D01*
X119317921Y-66825835D01*
X119334081Y-66856067D01*
X119344035Y-66888882D01*
X119348000Y-66929140D01*
X119348000Y-67892860D01*
X119344035Y-67933118D01*
X119334081Y-67965933D01*
X119317921Y-67996165D01*
X119296170Y-68022670D01*
X119269665Y-68044421D01*
X119239433Y-68060581D01*
X119206618Y-68070535D01*
X119166360Y-68074500D01*
X118577640Y-68074500D01*
X118537382Y-68070535D01*
X118504567Y-68060581D01*
X118474335Y-68044421D01*
X118447830Y-68022670D01*
X118426079Y-67996165D01*
X118409919Y-67965933D01*
X118399965Y-67933118D01*
X118396000Y-67892860D01*
X118396000Y-66929140D01*
X118399965Y-66888882D01*
X118409919Y-66856067D01*
X118426079Y-66825835D01*
X118447830Y-66799330D01*
X118474335Y-66777579D01*
X118504567Y-66761419D01*
X118537382Y-66751465D01*
X118577640Y-66747500D01*
X119166360Y-66747500D01*
X119206618Y-66751465D01*
X119206618Y-66751465D01*
G37*
G36*
X117682618Y-66751465D02*
G01*
X117715433Y-66761419D01*
X117745665Y-66777579D01*
X117772170Y-66799330D01*
X117793921Y-66825835D01*
X117810081Y-66856067D01*
X117820035Y-66888882D01*
X117824000Y-66929140D01*
X117824000Y-67892860D01*
X117820035Y-67933118D01*
X117810081Y-67965933D01*
X117793921Y-67996165D01*
X117772170Y-68022670D01*
X117745665Y-68044421D01*
X117715433Y-68060581D01*
X117682618Y-68070535D01*
X117642360Y-68074500D01*
X117053640Y-68074500D01*
X117013382Y-68070535D01*
X116980567Y-68060581D01*
X116950335Y-68044421D01*
X116923830Y-68022670D01*
X116902079Y-67996165D01*
X116885919Y-67965933D01*
X116875965Y-67933118D01*
X116872000Y-67892860D01*
X116872000Y-66929140D01*
X116875965Y-66888882D01*
X116885919Y-66856067D01*
X116902079Y-66825835D01*
X116923830Y-66799330D01*
X116950335Y-66777579D01*
X116980567Y-66761419D01*
X117013382Y-66751465D01*
X117053640Y-66747500D01*
X117642360Y-66747500D01*
X117682618Y-66751465D01*
X117682618Y-66751465D01*
G37*
G36*
X125687295Y-66155323D02*
G01*
X125694310Y-66157451D01*
X125700776Y-66160908D01*
X125706442Y-66165558D01*
X125711092Y-66171224D01*
X125714549Y-66177690D01*
X125716677Y-66184705D01*
X125717603Y-66194109D01*
X125722383Y-66218142D01*
X125731761Y-66240781D01*
X125745374Y-66261155D01*
X125762701Y-66278482D01*
X125783076Y-66292096D01*
X125805715Y-66301474D01*
X125829748Y-66306254D01*
X125854252Y-66306254D01*
X125878285Y-66301474D01*
X125900924Y-66292096D01*
X125921298Y-66278483D01*
X125938625Y-66261156D01*
X125952239Y-66240781D01*
X125961617Y-66218142D01*
X125966397Y-66194109D01*
X125967323Y-66184705D01*
X125969451Y-66177690D01*
X125972908Y-66171224D01*
X125977558Y-66165558D01*
X125983224Y-66160908D01*
X125989690Y-66157451D01*
X125996705Y-66155323D01*
X126010140Y-66154000D01*
X126323860Y-66154000D01*
X126337295Y-66155323D01*
X126344310Y-66157451D01*
X126350776Y-66160908D01*
X126356442Y-66165558D01*
X126361092Y-66171224D01*
X126364549Y-66177690D01*
X126366677Y-66184705D01*
X126367603Y-66194109D01*
X126372383Y-66218142D01*
X126381761Y-66240781D01*
X126395374Y-66261155D01*
X126412701Y-66278482D01*
X126433076Y-66292096D01*
X126455715Y-66301474D01*
X126479748Y-66306254D01*
X126504252Y-66306254D01*
X126528285Y-66301474D01*
X126550924Y-66292096D01*
X126571298Y-66278483D01*
X126588625Y-66261156D01*
X126602239Y-66240781D01*
X126611617Y-66218142D01*
X126616397Y-66194109D01*
X126617323Y-66184705D01*
X126619451Y-66177690D01*
X126622908Y-66171224D01*
X126627558Y-66165558D01*
X126633224Y-66160908D01*
X126639690Y-66157451D01*
X126646705Y-66155323D01*
X126660140Y-66154000D01*
X126973860Y-66154000D01*
X126987295Y-66155323D01*
X126994310Y-66157451D01*
X127000776Y-66160908D01*
X127006442Y-66165558D01*
X127011092Y-66171224D01*
X127014549Y-66177690D01*
X127016677Y-66184705D01*
X127017603Y-66194109D01*
X127022383Y-66218142D01*
X127031761Y-66240781D01*
X127045374Y-66261155D01*
X127062701Y-66278482D01*
X127083076Y-66292096D01*
X127105715Y-66301474D01*
X127129748Y-66306254D01*
X127154252Y-66306254D01*
X127178285Y-66301474D01*
X127200924Y-66292096D01*
X127221298Y-66278483D01*
X127238625Y-66261156D01*
X127252239Y-66240781D01*
X127261617Y-66218142D01*
X127266397Y-66194109D01*
X127267323Y-66184705D01*
X127269451Y-66177690D01*
X127272908Y-66171224D01*
X127277558Y-66165558D01*
X127283224Y-66160908D01*
X127289690Y-66157451D01*
X127296705Y-66155323D01*
X127310140Y-66154000D01*
X127623860Y-66154000D01*
X127637295Y-66155323D01*
X127644310Y-66157451D01*
X127650776Y-66160908D01*
X127656442Y-66165558D01*
X127661092Y-66171224D01*
X127664549Y-66177690D01*
X127666677Y-66184705D01*
X127668000Y-66198140D01*
X127668000Y-67061860D01*
X127666677Y-67075295D01*
X127664549Y-67082310D01*
X127661092Y-67088776D01*
X127656442Y-67094442D01*
X127650776Y-67099092D01*
X127644310Y-67102549D01*
X127637295Y-67104677D01*
X127623860Y-67106000D01*
X127310140Y-67106000D01*
X127296705Y-67104677D01*
X127289690Y-67102549D01*
X127283224Y-67099092D01*
X127277558Y-67094442D01*
X127272908Y-67088776D01*
X127269451Y-67082310D01*
X127267323Y-67075295D01*
X127266397Y-67065891D01*
X127261617Y-67041858D01*
X127252239Y-67019219D01*
X127238626Y-66998845D01*
X127221299Y-66981518D01*
X127200924Y-66967904D01*
X127178285Y-66958526D01*
X127154252Y-66953746D01*
X127129748Y-66953746D01*
X127105715Y-66958526D01*
X127083076Y-66967904D01*
X127062702Y-66981517D01*
X127045375Y-66998844D01*
X127031761Y-67019219D01*
X127022383Y-67041858D01*
X127017603Y-67065891D01*
X127016677Y-67075295D01*
X127014549Y-67082310D01*
X127011092Y-67088776D01*
X127006442Y-67094442D01*
X127000776Y-67099092D01*
X126994310Y-67102549D01*
X126987295Y-67104677D01*
X126973860Y-67106000D01*
X126660140Y-67106000D01*
X126646705Y-67104677D01*
X126639690Y-67102549D01*
X126633224Y-67099092D01*
X126627558Y-67094442D01*
X126622908Y-67088776D01*
X126619451Y-67082310D01*
X126617323Y-67075295D01*
X126616397Y-67065891D01*
X126611617Y-67041858D01*
X126602239Y-67019219D01*
X126588626Y-66998845D01*
X126571299Y-66981518D01*
X126550924Y-66967904D01*
X126528285Y-66958526D01*
X126504252Y-66953746D01*
X126479748Y-66953746D01*
X126455715Y-66958526D01*
X126433076Y-66967904D01*
X126412702Y-66981517D01*
X126395375Y-66998844D01*
X126381761Y-67019219D01*
X126372383Y-67041858D01*
X126367603Y-67065891D01*
X126366677Y-67075295D01*
X126364549Y-67082310D01*
X126361092Y-67088776D01*
X126356442Y-67094442D01*
X126350776Y-67099092D01*
X126344310Y-67102549D01*
X126337295Y-67104677D01*
X126323860Y-67106000D01*
X126010140Y-67106000D01*
X125996705Y-67104677D01*
X125989690Y-67102549D01*
X125983224Y-67099092D01*
X125977558Y-67094442D01*
X125972908Y-67088776D01*
X125969451Y-67082310D01*
X125967323Y-67075295D01*
X125966397Y-67065891D01*
X125961617Y-67041858D01*
X125952239Y-67019219D01*
X125938626Y-66998845D01*
X125921299Y-66981518D01*
X125900924Y-66967904D01*
X125878285Y-66958526D01*
X125854252Y-66953746D01*
X125829748Y-66953746D01*
X125805715Y-66958526D01*
X125783076Y-66967904D01*
X125762702Y-66981517D01*
X125745375Y-66998844D01*
X125731761Y-67019219D01*
X125722383Y-67041858D01*
X125717603Y-67065891D01*
X125716677Y-67075295D01*
X125714549Y-67082310D01*
X125711092Y-67088776D01*
X125706442Y-67094442D01*
X125700776Y-67099092D01*
X125694310Y-67102549D01*
X125687295Y-67104677D01*
X125673860Y-67106000D01*
X125360140Y-67106000D01*
X125346705Y-67104677D01*
X125339690Y-67102549D01*
X125333224Y-67099092D01*
X125327558Y-67094442D01*
X125322908Y-67088776D01*
X125319451Y-67082310D01*
X125317323Y-67075295D01*
X125316000Y-67061860D01*
X125316000Y-66198140D01*
X125317323Y-66184705D01*
X125319451Y-66177690D01*
X125322908Y-66171224D01*
X125327558Y-66165558D01*
X125333224Y-66160908D01*
X125339690Y-66157451D01*
X125346705Y-66155323D01*
X125360140Y-66154000D01*
X125673860Y-66154000D01*
X125687295Y-66155323D01*
X125687295Y-66155323D01*
G37*
G36*
X120730618Y-65126465D02*
G01*
X120763433Y-65136419D01*
X120793665Y-65152579D01*
X120820170Y-65174330D01*
X120841921Y-65200835D01*
X120858081Y-65231067D01*
X120868035Y-65263882D01*
X120872000Y-65304140D01*
X120872000Y-66267860D01*
X120868035Y-66308118D01*
X120858081Y-66340933D01*
X120841921Y-66371165D01*
X120820170Y-66397670D01*
X120793665Y-66419421D01*
X120763433Y-66435581D01*
X120730618Y-66445535D01*
X120690360Y-66449500D01*
X120101640Y-66449500D01*
X120061382Y-66445535D01*
X120028567Y-66435581D01*
X119998335Y-66419421D01*
X119971830Y-66397670D01*
X119950079Y-66371165D01*
X119933919Y-66340933D01*
X119923965Y-66308118D01*
X119920000Y-66267860D01*
X119920000Y-65304140D01*
X119923965Y-65263882D01*
X119933919Y-65231067D01*
X119950079Y-65200835D01*
X119971830Y-65174330D01*
X119998335Y-65152579D01*
X120028567Y-65136419D01*
X120061382Y-65126465D01*
X120101640Y-65122500D01*
X120690360Y-65122500D01*
X120730618Y-65126465D01*
X120730618Y-65126465D01*
G37*
G36*
X116158618Y-65126465D02*
G01*
X116191433Y-65136419D01*
X116221665Y-65152579D01*
X116248170Y-65174330D01*
X116269921Y-65200835D01*
X116286081Y-65231067D01*
X116296035Y-65263882D01*
X116300000Y-65304140D01*
X116300000Y-66267860D01*
X116296035Y-66308118D01*
X116286081Y-66340933D01*
X116269921Y-66371165D01*
X116248170Y-66397670D01*
X116221665Y-66419421D01*
X116191433Y-66435581D01*
X116158618Y-66445535D01*
X116118360Y-66449500D01*
X115529640Y-66449500D01*
X115489382Y-66445535D01*
X115456567Y-66435581D01*
X115426335Y-66419421D01*
X115399830Y-66397670D01*
X115378079Y-66371165D01*
X115361919Y-66340933D01*
X115351965Y-66308118D01*
X115348000Y-66267860D01*
X115348000Y-65304140D01*
X115351965Y-65263882D01*
X115361919Y-65231067D01*
X115378079Y-65200835D01*
X115399830Y-65174330D01*
X115426335Y-65152579D01*
X115456567Y-65136419D01*
X115489382Y-65126465D01*
X115529640Y-65122500D01*
X116118360Y-65122500D01*
X116158618Y-65126465D01*
X116158618Y-65126465D01*
G37*
G36*
X117682618Y-65126465D02*
G01*
X117715433Y-65136419D01*
X117745665Y-65152579D01*
X117772170Y-65174330D01*
X117793921Y-65200835D01*
X117810081Y-65231067D01*
X117820035Y-65263882D01*
X117824000Y-65304140D01*
X117824000Y-66267860D01*
X117820035Y-66308118D01*
X117810081Y-66340933D01*
X117793921Y-66371165D01*
X117772170Y-66397670D01*
X117745665Y-66419421D01*
X117715433Y-66435581D01*
X117682618Y-66445535D01*
X117642360Y-66449500D01*
X117053640Y-66449500D01*
X117013382Y-66445535D01*
X116980567Y-66435581D01*
X116950335Y-66419421D01*
X116923830Y-66397670D01*
X116902079Y-66371165D01*
X116885919Y-66340933D01*
X116875965Y-66308118D01*
X116872000Y-66267860D01*
X116872000Y-65304140D01*
X116875965Y-65263882D01*
X116885919Y-65231067D01*
X116902079Y-65200835D01*
X116923830Y-65174330D01*
X116950335Y-65152579D01*
X116980567Y-65136419D01*
X117013382Y-65126465D01*
X117053640Y-65122500D01*
X117642360Y-65122500D01*
X117682618Y-65126465D01*
X117682618Y-65126465D01*
G37*
G36*
X119206618Y-65126465D02*
G01*
X119239433Y-65136419D01*
X119269665Y-65152579D01*
X119296170Y-65174330D01*
X119317921Y-65200835D01*
X119334081Y-65231067D01*
X119344035Y-65263882D01*
X119348000Y-65304140D01*
X119348000Y-66267860D01*
X119344035Y-66308118D01*
X119334081Y-66340933D01*
X119317921Y-66371165D01*
X119296170Y-66397670D01*
X119269665Y-66419421D01*
X119239433Y-66435581D01*
X119206618Y-66445535D01*
X119166360Y-66449500D01*
X118577640Y-66449500D01*
X118537382Y-66445535D01*
X118504567Y-66435581D01*
X118474335Y-66419421D01*
X118447830Y-66397670D01*
X118426079Y-66371165D01*
X118409919Y-66340933D01*
X118399965Y-66308118D01*
X118396000Y-66267860D01*
X118396000Y-65304140D01*
X118399965Y-65263882D01*
X118409919Y-65231067D01*
X118426079Y-65200835D01*
X118447830Y-65174330D01*
X118474335Y-65152579D01*
X118504567Y-65136419D01*
X118537382Y-65126465D01*
X118577640Y-65122500D01*
X119166360Y-65122500D01*
X119206618Y-65126465D01*
X119206618Y-65126465D01*
G37*
G36*
X125731170Y-65282803D02*
G01*
X125742877Y-65286355D01*
X125762077Y-65296617D01*
X125784716Y-65305994D01*
X125808749Y-65310774D01*
X125833253Y-65310774D01*
X125857286Y-65305993D01*
X125879923Y-65296617D01*
X125899123Y-65286355D01*
X125910830Y-65282803D01*
X125929138Y-65281000D01*
X126352862Y-65281000D01*
X126371170Y-65282803D01*
X126382875Y-65286354D01*
X126393665Y-65292121D01*
X126403123Y-65299883D01*
X126407876Y-65305675D01*
X126425203Y-65323002D01*
X126445578Y-65336615D01*
X126468217Y-65345992D01*
X126492250Y-65350772D01*
X126516754Y-65350772D01*
X126540787Y-65345991D01*
X126563426Y-65336613D01*
X126583800Y-65322999D01*
X126601124Y-65305675D01*
X126605877Y-65299883D01*
X126615335Y-65292121D01*
X126626125Y-65286354D01*
X126637830Y-65282803D01*
X126656138Y-65281000D01*
X127079862Y-65281000D01*
X127098170Y-65282803D01*
X127109877Y-65286355D01*
X127129077Y-65296617D01*
X127151716Y-65305994D01*
X127175749Y-65310774D01*
X127200253Y-65310774D01*
X127224286Y-65305993D01*
X127246923Y-65296617D01*
X127266123Y-65286355D01*
X127277830Y-65282803D01*
X127296138Y-65281000D01*
X127719862Y-65281000D01*
X127738170Y-65282803D01*
X127749875Y-65286354D01*
X127760665Y-65292121D01*
X127770119Y-65299881D01*
X127777879Y-65309335D01*
X127783646Y-65320125D01*
X127787197Y-65331830D01*
X127789000Y-65350138D01*
X127789000Y-65713862D01*
X127787197Y-65732170D01*
X127783646Y-65743875D01*
X127777879Y-65754665D01*
X127770119Y-65764119D01*
X127760665Y-65771879D01*
X127749875Y-65777646D01*
X127738170Y-65781197D01*
X127719862Y-65783000D01*
X127296138Y-65783000D01*
X127277830Y-65781197D01*
X127266123Y-65777645D01*
X127246923Y-65767383D01*
X127224284Y-65758006D01*
X127200251Y-65753226D01*
X127175747Y-65753226D01*
X127151714Y-65758007D01*
X127129077Y-65767383D01*
X127109877Y-65777645D01*
X127098170Y-65781197D01*
X127079862Y-65783000D01*
X126656138Y-65783000D01*
X126637830Y-65781197D01*
X126626125Y-65777646D01*
X126615335Y-65771879D01*
X126605877Y-65764117D01*
X126601124Y-65758325D01*
X126583797Y-65740998D01*
X126563422Y-65727385D01*
X126540783Y-65718008D01*
X126516750Y-65713228D01*
X126492246Y-65713228D01*
X126468213Y-65718009D01*
X126445574Y-65727387D01*
X126425200Y-65741001D01*
X126407876Y-65758325D01*
X126403123Y-65764117D01*
X126393665Y-65771879D01*
X126382875Y-65777646D01*
X126371170Y-65781197D01*
X126352862Y-65783000D01*
X125929138Y-65783000D01*
X125910830Y-65781197D01*
X125899123Y-65777645D01*
X125879923Y-65767383D01*
X125857284Y-65758006D01*
X125833251Y-65753226D01*
X125808747Y-65753226D01*
X125784714Y-65758007D01*
X125762077Y-65767383D01*
X125742877Y-65777645D01*
X125731170Y-65781197D01*
X125712862Y-65783000D01*
X125289138Y-65783000D01*
X125270830Y-65781197D01*
X125259125Y-65777646D01*
X125248335Y-65771879D01*
X125238881Y-65764119D01*
X125231121Y-65754665D01*
X125225354Y-65743875D01*
X125221803Y-65732170D01*
X125220000Y-65713862D01*
X125220000Y-65350138D01*
X125221803Y-65331830D01*
X125225354Y-65320125D01*
X125231121Y-65309335D01*
X125238881Y-65299881D01*
X125248335Y-65292121D01*
X125259125Y-65286354D01*
X125270830Y-65282803D01*
X125289138Y-65281000D01*
X125712862Y-65281000D01*
X125731170Y-65282803D01*
X125731170Y-65282803D01*
G37*
G36*
X107862823Y-62153313D02*
G01*
X108023242Y-62201976D01*
X108155906Y-62272886D01*
X108171078Y-62280996D01*
X108300659Y-62387341D01*
X108407004Y-62516922D01*
X108407005Y-62516924D01*
X108486024Y-62664758D01*
X108534687Y-62825177D01*
X108551117Y-62992000D01*
X108534687Y-63158823D01*
X108486024Y-63319242D01*
X108415114Y-63451906D01*
X108407004Y-63467078D01*
X108300659Y-63596659D01*
X108171078Y-63703004D01*
X108171076Y-63703005D01*
X108023242Y-63782024D01*
X107862823Y-63830687D01*
X107737804Y-63843000D01*
X107654196Y-63843000D01*
X107529177Y-63830687D01*
X107368758Y-63782024D01*
X107220924Y-63703005D01*
X107220922Y-63703004D01*
X107091341Y-63596659D01*
X106984996Y-63467078D01*
X106976886Y-63451906D01*
X106905976Y-63319242D01*
X106857313Y-63158823D01*
X106840883Y-62992000D01*
X106857313Y-62825177D01*
X106905976Y-62664758D01*
X106984995Y-62516924D01*
X106984996Y-62516922D01*
X107091341Y-62387341D01*
X107220922Y-62280996D01*
X107236094Y-62272886D01*
X107368758Y-62201976D01*
X107529177Y-62153313D01*
X107654196Y-62141000D01*
X107737804Y-62141000D01*
X107862823Y-62153313D01*
X107862823Y-62153313D01*
G37*
G36*
X113627000Y-63843000D02*
G01*
X111925000Y-63843000D01*
X111925000Y-62141000D01*
X113627000Y-62141000D01*
X113627000Y-63843000D01*
X113627000Y-63843000D01*
G37*
G36*
X110402823Y-62153313D02*
G01*
X110563242Y-62201976D01*
X110695906Y-62272886D01*
X110711078Y-62280996D01*
X110840659Y-62387341D01*
X110947004Y-62516922D01*
X110947005Y-62516924D01*
X111026024Y-62664758D01*
X111074687Y-62825177D01*
X111091117Y-62992000D01*
X111074687Y-63158823D01*
X111026024Y-63319242D01*
X110955114Y-63451906D01*
X110947004Y-63467078D01*
X110840659Y-63596659D01*
X110711078Y-63703004D01*
X110711076Y-63703005D01*
X110563242Y-63782024D01*
X110402823Y-63830687D01*
X110277804Y-63843000D01*
X110194196Y-63843000D01*
X110069177Y-63830687D01*
X109908758Y-63782024D01*
X109760924Y-63703005D01*
X109760922Y-63703004D01*
X109631341Y-63596659D01*
X109524996Y-63467078D01*
X109516886Y-63451906D01*
X109445976Y-63319242D01*
X109397313Y-63158823D01*
X109380883Y-62992000D01*
X109397313Y-62825177D01*
X109445976Y-62664758D01*
X109524995Y-62516924D01*
X109524996Y-62516922D01*
X109631341Y-62387341D01*
X109760922Y-62280996D01*
X109776094Y-62272886D01*
X109908758Y-62201976D01*
X110069177Y-62153313D01*
X110194196Y-62141000D01*
X110277804Y-62141000D01*
X110402823Y-62153313D01*
X110402823Y-62153313D01*
G37*
G36*
X126602443Y-59557519D02*
G01*
X126668627Y-59564037D01*
X126838466Y-59615557D01*
X126994991Y-59699222D01*
X127030729Y-59728552D01*
X127132186Y-59811814D01*
X127215448Y-59913271D01*
X127244778Y-59949009D01*
X127244779Y-59949011D01*
X127313793Y-60078125D01*
X127328443Y-60105534D01*
X127379963Y-60275373D01*
X127397359Y-60452000D01*
X127379963Y-60628627D01*
X127328443Y-60798466D01*
X127244778Y-60954991D01*
X127215448Y-60990729D01*
X127132186Y-61092186D01*
X127045255Y-61163527D01*
X126994991Y-61204778D01*
X126838466Y-61288443D01*
X126668627Y-61339963D01*
X126602443Y-61346481D01*
X126536260Y-61353000D01*
X126447740Y-61353000D01*
X126381557Y-61346481D01*
X126315373Y-61339963D01*
X126145534Y-61288443D01*
X125989009Y-61204778D01*
X125938745Y-61163527D01*
X125851814Y-61092186D01*
X125768552Y-60990729D01*
X125739222Y-60954991D01*
X125655557Y-60798466D01*
X125604037Y-60628627D01*
X125586641Y-60452000D01*
X125604037Y-60275373D01*
X125655557Y-60105534D01*
X125670208Y-60078125D01*
X125739221Y-59949011D01*
X125739222Y-59949009D01*
X125768552Y-59913271D01*
X125851814Y-59811814D01*
X125953271Y-59728552D01*
X125989009Y-59699222D01*
X126145534Y-59615557D01*
X126315373Y-59564037D01*
X126381557Y-59557519D01*
X126447740Y-59551000D01*
X126536260Y-59551000D01*
X126602443Y-59557519D01*
X126602443Y-59557519D01*
G37*
G36*
X112468170Y-60040803D02*
G01*
X112479875Y-60044354D01*
X112490665Y-60050121D01*
X112500119Y-60057881D01*
X112507879Y-60067335D01*
X112513646Y-60078125D01*
X112517197Y-60089830D01*
X112519000Y-60108138D01*
X112519000Y-60531862D01*
X112517197Y-60550170D01*
X112513645Y-60561877D01*
X112503383Y-60581077D01*
X112494006Y-60603716D01*
X112489226Y-60627749D01*
X112489226Y-60652253D01*
X112494007Y-60676286D01*
X112503383Y-60698923D01*
X112513645Y-60718123D01*
X112517197Y-60729830D01*
X112519000Y-60748138D01*
X112519000Y-61171862D01*
X112517197Y-61190170D01*
X112513646Y-61201875D01*
X112507879Y-61212665D01*
X112500119Y-61222119D01*
X112490665Y-61229879D01*
X112479875Y-61235646D01*
X112468170Y-61239197D01*
X112449862Y-61241000D01*
X112086138Y-61241000D01*
X112067830Y-61239197D01*
X112056125Y-61235646D01*
X112045335Y-61229879D01*
X112035881Y-61222119D01*
X112028121Y-61212665D01*
X112022354Y-61201875D01*
X112018803Y-61190170D01*
X112017000Y-61171862D01*
X112017000Y-60748138D01*
X112018803Y-60729830D01*
X112022355Y-60718123D01*
X112032617Y-60698923D01*
X112041994Y-60676284D01*
X112046774Y-60652251D01*
X112046774Y-60627747D01*
X112041993Y-60603714D01*
X112032617Y-60581077D01*
X112022355Y-60561877D01*
X112018803Y-60550170D01*
X112017000Y-60531862D01*
X112017000Y-60108138D01*
X112018803Y-60089830D01*
X112022354Y-60078125D01*
X112028121Y-60067335D01*
X112035881Y-60057881D01*
X112045335Y-60050121D01*
X112056125Y-60044354D01*
X112067830Y-60040803D01*
X112086138Y-60039000D01*
X112449862Y-60039000D01*
X112468170Y-60040803D01*
X112468170Y-60040803D01*
G37*
G36*
X109763000Y-61229000D02*
G01*
X107661000Y-61229000D01*
X107661000Y-56627000D01*
X109763000Y-56627000D01*
X109763000Y-61229000D01*
X109763000Y-61229000D01*
G37*
G36*
X117277355Y-53971083D02*
G01*
X117282029Y-53972501D01*
X117286330Y-53974800D01*
X117292702Y-53980029D01*
X117313076Y-53993643D01*
X117335715Y-54003020D01*
X117359749Y-54007800D01*
X117384253Y-54007800D01*
X117408286Y-54003019D01*
X117430925Y-53993642D01*
X117451298Y-53980029D01*
X117457670Y-53974800D01*
X117461971Y-53972501D01*
X117466645Y-53971083D01*
X117477641Y-53970000D01*
X117766359Y-53970000D01*
X117777355Y-53971083D01*
X117782029Y-53972501D01*
X117786330Y-53974800D01*
X117792702Y-53980029D01*
X117813076Y-53993643D01*
X117835715Y-54003020D01*
X117859749Y-54007800D01*
X117884253Y-54007800D01*
X117908286Y-54003019D01*
X117930925Y-53993642D01*
X117951298Y-53980029D01*
X117957670Y-53974800D01*
X117961971Y-53972501D01*
X117966645Y-53971083D01*
X117977641Y-53970000D01*
X118266359Y-53970000D01*
X118277355Y-53971083D01*
X118282029Y-53972501D01*
X118286330Y-53974800D01*
X118292702Y-53980029D01*
X118313076Y-53993643D01*
X118335715Y-54003020D01*
X118359749Y-54007800D01*
X118384253Y-54007800D01*
X118408286Y-54003019D01*
X118430925Y-53993642D01*
X118451298Y-53980029D01*
X118457670Y-53974800D01*
X118461971Y-53972501D01*
X118466645Y-53971083D01*
X118477641Y-53970000D01*
X118766359Y-53970000D01*
X118777355Y-53971083D01*
X118782029Y-53972501D01*
X118786330Y-53974800D01*
X118792702Y-53980029D01*
X118813076Y-53993643D01*
X118835715Y-54003020D01*
X118859749Y-54007800D01*
X118884253Y-54007800D01*
X118908286Y-54003019D01*
X118930925Y-53993642D01*
X118951298Y-53980029D01*
X118957670Y-53974800D01*
X118961971Y-53972501D01*
X118966645Y-53971083D01*
X118977641Y-53970000D01*
X119266359Y-53970000D01*
X119277355Y-53971083D01*
X119282029Y-53972501D01*
X119286330Y-53974800D01*
X119292702Y-53980029D01*
X119313076Y-53993643D01*
X119335715Y-54003020D01*
X119359749Y-54007800D01*
X119384253Y-54007800D01*
X119408286Y-54003019D01*
X119430925Y-53993642D01*
X119451298Y-53980029D01*
X119457670Y-53974800D01*
X119461971Y-53972501D01*
X119466645Y-53971083D01*
X119477641Y-53970000D01*
X119766359Y-53970000D01*
X119777355Y-53971083D01*
X119782029Y-53972501D01*
X119786330Y-53974800D01*
X119792702Y-53980029D01*
X119813076Y-53993643D01*
X119835715Y-54003020D01*
X119859749Y-54007800D01*
X119884253Y-54007800D01*
X119908286Y-54003019D01*
X119930925Y-53993642D01*
X119951298Y-53980029D01*
X119957670Y-53974800D01*
X119961971Y-53972501D01*
X119966645Y-53971083D01*
X119977641Y-53970000D01*
X120266359Y-53970000D01*
X120277355Y-53971083D01*
X120282029Y-53972501D01*
X120286330Y-53974800D01*
X120292702Y-53980029D01*
X120313076Y-53993643D01*
X120335715Y-54003020D01*
X120359749Y-54007800D01*
X120384253Y-54007800D01*
X120408286Y-54003019D01*
X120430925Y-53993642D01*
X120451298Y-53980029D01*
X120457670Y-53974800D01*
X120461971Y-53972501D01*
X120466645Y-53971083D01*
X120477641Y-53970000D01*
X120766359Y-53970000D01*
X120777355Y-53971083D01*
X120782029Y-53972501D01*
X120786331Y-53974800D01*
X120790104Y-53977896D01*
X120793200Y-53981669D01*
X120795499Y-53985971D01*
X120796917Y-53990645D01*
X120798000Y-54001641D01*
X120798000Y-54845001D01*
X120800402Y-54869387D01*
X120807515Y-54892836D01*
X120819066Y-54914447D01*
X120834611Y-54933389D01*
X120853553Y-54948934D01*
X120875164Y-54960485D01*
X120898613Y-54967598D01*
X120922999Y-54970000D01*
X121766359Y-54970000D01*
X121777355Y-54971083D01*
X121782029Y-54972501D01*
X121786331Y-54974800D01*
X121790104Y-54977896D01*
X121793200Y-54981669D01*
X121795499Y-54985971D01*
X121796917Y-54990645D01*
X121798000Y-55001641D01*
X121798000Y-55290359D01*
X121796917Y-55301355D01*
X121795499Y-55306029D01*
X121793200Y-55310330D01*
X121787971Y-55316702D01*
X121774357Y-55337076D01*
X121764980Y-55359715D01*
X121760200Y-55383749D01*
X121760200Y-55408253D01*
X121764981Y-55432286D01*
X121774358Y-55454925D01*
X121787971Y-55475298D01*
X121793200Y-55481670D01*
X121795499Y-55485971D01*
X121796917Y-55490645D01*
X121798000Y-55501641D01*
X121798000Y-55790359D01*
X121796917Y-55801355D01*
X121795499Y-55806029D01*
X121793200Y-55810330D01*
X121787971Y-55816702D01*
X121774357Y-55837076D01*
X121764980Y-55859715D01*
X121760200Y-55883749D01*
X121760200Y-55908253D01*
X121764981Y-55932286D01*
X121774358Y-55954925D01*
X121787971Y-55975298D01*
X121793200Y-55981670D01*
X121795499Y-55985971D01*
X121796917Y-55990645D01*
X121798000Y-56001641D01*
X121798000Y-56290359D01*
X121796917Y-56301355D01*
X121795499Y-56306029D01*
X121793200Y-56310330D01*
X121787971Y-56316702D01*
X121774357Y-56337076D01*
X121764980Y-56359715D01*
X121760200Y-56383749D01*
X121760200Y-56408253D01*
X121764981Y-56432286D01*
X121774358Y-56454925D01*
X121787971Y-56475298D01*
X121793200Y-56481670D01*
X121795499Y-56485971D01*
X121796917Y-56490645D01*
X121798000Y-56501641D01*
X121798000Y-56790359D01*
X121796917Y-56801355D01*
X121795499Y-56806029D01*
X121793200Y-56810330D01*
X121787971Y-56816702D01*
X121774357Y-56837076D01*
X121764980Y-56859715D01*
X121760200Y-56883749D01*
X121760200Y-56908253D01*
X121764981Y-56932286D01*
X121774358Y-56954925D01*
X121787971Y-56975298D01*
X121793200Y-56981670D01*
X121795499Y-56985971D01*
X121796917Y-56990645D01*
X121798000Y-57001641D01*
X121798000Y-57290359D01*
X121796917Y-57301355D01*
X121795499Y-57306029D01*
X121793200Y-57310330D01*
X121787971Y-57316702D01*
X121774357Y-57337076D01*
X121764980Y-57359715D01*
X121760200Y-57383749D01*
X121760200Y-57408253D01*
X121764981Y-57432286D01*
X121774358Y-57454925D01*
X121787971Y-57475298D01*
X121793200Y-57481670D01*
X121795499Y-57485971D01*
X121796917Y-57490645D01*
X121798000Y-57501641D01*
X121798000Y-57790359D01*
X121796917Y-57801355D01*
X121795499Y-57806029D01*
X121793200Y-57810330D01*
X121787971Y-57816702D01*
X121774357Y-57837076D01*
X121764980Y-57859715D01*
X121760200Y-57883749D01*
X121760200Y-57908253D01*
X121764981Y-57932286D01*
X121774358Y-57954925D01*
X121787971Y-57975298D01*
X121793200Y-57981670D01*
X121795499Y-57985971D01*
X121796917Y-57990645D01*
X121798000Y-58001641D01*
X121798000Y-58290359D01*
X121796917Y-58301355D01*
X121795499Y-58306029D01*
X121793200Y-58310330D01*
X121787971Y-58316702D01*
X121774357Y-58337076D01*
X121764980Y-58359715D01*
X121760200Y-58383749D01*
X121760200Y-58408253D01*
X121764981Y-58432286D01*
X121774358Y-58454925D01*
X121787971Y-58475298D01*
X121793200Y-58481670D01*
X121795499Y-58485971D01*
X121796917Y-58490645D01*
X121798000Y-58501641D01*
X121798000Y-58790359D01*
X121796917Y-58801355D01*
X121795499Y-58806029D01*
X121793200Y-58810331D01*
X121790104Y-58814104D01*
X121786331Y-58817200D01*
X121782029Y-58819499D01*
X121777355Y-58820917D01*
X121766359Y-58822000D01*
X120922999Y-58822000D01*
X120898613Y-58824402D01*
X120875164Y-58831515D01*
X120853553Y-58843066D01*
X120834611Y-58858611D01*
X120819066Y-58877553D01*
X120807515Y-58899164D01*
X120800402Y-58922613D01*
X120798000Y-58946999D01*
X120798000Y-59790359D01*
X120796917Y-59801355D01*
X120795499Y-59806029D01*
X120793200Y-59810331D01*
X120790104Y-59814104D01*
X120786331Y-59817200D01*
X120782029Y-59819499D01*
X120777355Y-59820917D01*
X120766359Y-59822000D01*
X120477641Y-59822000D01*
X120466645Y-59820917D01*
X120461971Y-59819499D01*
X120457670Y-59817200D01*
X120451298Y-59811971D01*
X120430924Y-59798357D01*
X120408285Y-59788980D01*
X120384251Y-59784200D01*
X120359747Y-59784200D01*
X120335714Y-59788981D01*
X120313075Y-59798358D01*
X120292702Y-59811971D01*
X120286330Y-59817200D01*
X120282029Y-59819499D01*
X120277355Y-59820917D01*
X120266359Y-59822000D01*
X119977641Y-59822000D01*
X119966645Y-59820917D01*
X119961971Y-59819499D01*
X119957670Y-59817200D01*
X119951298Y-59811971D01*
X119930924Y-59798357D01*
X119908285Y-59788980D01*
X119884251Y-59784200D01*
X119859747Y-59784200D01*
X119835714Y-59788981D01*
X119813075Y-59798358D01*
X119792702Y-59811971D01*
X119786330Y-59817200D01*
X119782029Y-59819499D01*
X119777355Y-59820917D01*
X119766359Y-59822000D01*
X119477641Y-59822000D01*
X119466645Y-59820917D01*
X119461971Y-59819499D01*
X119457670Y-59817200D01*
X119451298Y-59811971D01*
X119430924Y-59798357D01*
X119408285Y-59788980D01*
X119384251Y-59784200D01*
X119359747Y-59784200D01*
X119335714Y-59788981D01*
X119313075Y-59798358D01*
X119292702Y-59811971D01*
X119286330Y-59817200D01*
X119282029Y-59819499D01*
X119277355Y-59820917D01*
X119266359Y-59822000D01*
X118977641Y-59822000D01*
X118966645Y-59820917D01*
X118961971Y-59819499D01*
X118957670Y-59817200D01*
X118951298Y-59811971D01*
X118930924Y-59798357D01*
X118908285Y-59788980D01*
X118884251Y-59784200D01*
X118859747Y-59784200D01*
X118835714Y-59788981D01*
X118813075Y-59798358D01*
X118792702Y-59811971D01*
X118786330Y-59817200D01*
X118782029Y-59819499D01*
X118777355Y-59820917D01*
X118766359Y-59822000D01*
X118477641Y-59822000D01*
X118466645Y-59820917D01*
X118461971Y-59819499D01*
X118457670Y-59817200D01*
X118451298Y-59811971D01*
X118430924Y-59798357D01*
X118408285Y-59788980D01*
X118384251Y-59784200D01*
X118359747Y-59784200D01*
X118335714Y-59788981D01*
X118313075Y-59798358D01*
X118292702Y-59811971D01*
X118286330Y-59817200D01*
X118282029Y-59819499D01*
X118277355Y-59820917D01*
X118266359Y-59822000D01*
X117977641Y-59822000D01*
X117966645Y-59820917D01*
X117961971Y-59819499D01*
X117957670Y-59817200D01*
X117951298Y-59811971D01*
X117930924Y-59798357D01*
X117908285Y-59788980D01*
X117884251Y-59784200D01*
X117859747Y-59784200D01*
X117835714Y-59788981D01*
X117813075Y-59798358D01*
X117792702Y-59811971D01*
X117786330Y-59817200D01*
X117782029Y-59819499D01*
X117777355Y-59820917D01*
X117766359Y-59822000D01*
X117477641Y-59822000D01*
X117466645Y-59820917D01*
X117461971Y-59819499D01*
X117457670Y-59817200D01*
X117451298Y-59811971D01*
X117430924Y-59798357D01*
X117408285Y-59788980D01*
X117384251Y-59784200D01*
X117359747Y-59784200D01*
X117335714Y-59788981D01*
X117313075Y-59798358D01*
X117292702Y-59811971D01*
X117286330Y-59817200D01*
X117282029Y-59819499D01*
X117277355Y-59820917D01*
X117266359Y-59822000D01*
X116977641Y-59822000D01*
X116966645Y-59820917D01*
X116961971Y-59819499D01*
X116957669Y-59817200D01*
X116953896Y-59814104D01*
X116950800Y-59810331D01*
X116948501Y-59806029D01*
X116947083Y-59801355D01*
X116946000Y-59790359D01*
X116946000Y-58946999D01*
X116943598Y-58922613D01*
X116936485Y-58899164D01*
X116924934Y-58877553D01*
X116909389Y-58858611D01*
X116890447Y-58843066D01*
X116868836Y-58831515D01*
X116845387Y-58824402D01*
X116821001Y-58822000D01*
X115977641Y-58822000D01*
X115966645Y-58820917D01*
X115961971Y-58819499D01*
X115957669Y-58817200D01*
X115953896Y-58814104D01*
X115950800Y-58810331D01*
X115948501Y-58806029D01*
X115947083Y-58801355D01*
X115946000Y-58790359D01*
X115946000Y-58501641D01*
X115947083Y-58490645D01*
X115948501Y-58485971D01*
X115950800Y-58481670D01*
X115956029Y-58475298D01*
X115969643Y-58454924D01*
X115979020Y-58432285D01*
X115983800Y-58408251D01*
X115983800Y-58383747D01*
X115979019Y-58359714D01*
X115969642Y-58337075D01*
X115956029Y-58316702D01*
X115950800Y-58310330D01*
X115948501Y-58306029D01*
X115947083Y-58301355D01*
X115946000Y-58290359D01*
X115946000Y-58001641D01*
X115947083Y-57990645D01*
X115948501Y-57985971D01*
X115950800Y-57981670D01*
X115956029Y-57975298D01*
X115969643Y-57954924D01*
X115979020Y-57932285D01*
X115983800Y-57908251D01*
X115983800Y-57883747D01*
X115979019Y-57859714D01*
X115969642Y-57837075D01*
X115956029Y-57816702D01*
X115950800Y-57810330D01*
X115948501Y-57806029D01*
X115947083Y-57801355D01*
X115946000Y-57790359D01*
X115946000Y-57501641D01*
X115947083Y-57490645D01*
X115948501Y-57485971D01*
X115950800Y-57481670D01*
X115956029Y-57475298D01*
X115969643Y-57454924D01*
X115979020Y-57432285D01*
X115983800Y-57408251D01*
X115983800Y-57383747D01*
X115979019Y-57359714D01*
X115969642Y-57337075D01*
X115956029Y-57316702D01*
X115950800Y-57310330D01*
X115948501Y-57306029D01*
X115947083Y-57301355D01*
X115946000Y-57290359D01*
X115946000Y-57001641D01*
X115947083Y-56990645D01*
X115948501Y-56985971D01*
X115950800Y-56981670D01*
X115956029Y-56975298D01*
X115969643Y-56954924D01*
X115979020Y-56932285D01*
X115983800Y-56908251D01*
X115983800Y-56883747D01*
X115979019Y-56859714D01*
X115969642Y-56837075D01*
X115956029Y-56816702D01*
X115950800Y-56810330D01*
X115948501Y-56806029D01*
X115947083Y-56801355D01*
X115946000Y-56790359D01*
X115946000Y-56501641D01*
X115947083Y-56490645D01*
X115948501Y-56485971D01*
X115950800Y-56481670D01*
X115956029Y-56475298D01*
X115969643Y-56454924D01*
X115979020Y-56432285D01*
X115983800Y-56408251D01*
X115983800Y-56383747D01*
X115979019Y-56359714D01*
X115969642Y-56337075D01*
X115956029Y-56316702D01*
X115950800Y-56310330D01*
X115948501Y-56306029D01*
X115947083Y-56301355D01*
X115946000Y-56290359D01*
X115946000Y-56001641D01*
X115947083Y-55990645D01*
X115948501Y-55985971D01*
X115950800Y-55981670D01*
X115956029Y-55975298D01*
X115969643Y-55954924D01*
X115979020Y-55932285D01*
X115983800Y-55908251D01*
X115983800Y-55883747D01*
X115979019Y-55859714D01*
X115969642Y-55837075D01*
X115956029Y-55816702D01*
X115950800Y-55810330D01*
X115948501Y-55806029D01*
X115947083Y-55801355D01*
X115946000Y-55790359D01*
X115946000Y-55501641D01*
X115947083Y-55490645D01*
X115948501Y-55485971D01*
X115950800Y-55481670D01*
X115956029Y-55475298D01*
X115969643Y-55454924D01*
X115979020Y-55432285D01*
X115983800Y-55408251D01*
X115983800Y-55383749D01*
X116885200Y-55383749D01*
X116885200Y-55408253D01*
X116889981Y-55432286D01*
X116899358Y-55454925D01*
X116912971Y-55475298D01*
X116918200Y-55481670D01*
X116920499Y-55485971D01*
X116921917Y-55490645D01*
X116923000Y-55501641D01*
X116923000Y-55790359D01*
X116921917Y-55801355D01*
X116920499Y-55806029D01*
X116918200Y-55810330D01*
X116912971Y-55816702D01*
X116899357Y-55837076D01*
X116889980Y-55859715D01*
X116885200Y-55883749D01*
X116885200Y-55908253D01*
X116889981Y-55932286D01*
X116899358Y-55954925D01*
X116912971Y-55975298D01*
X116918200Y-55981670D01*
X116920499Y-55985971D01*
X116921917Y-55990645D01*
X116923000Y-56001641D01*
X116923000Y-56290359D01*
X116921917Y-56301355D01*
X116920499Y-56306029D01*
X116918200Y-56310330D01*
X116912971Y-56316702D01*
X116899357Y-56337076D01*
X116889980Y-56359715D01*
X116885200Y-56383749D01*
X116885200Y-56408253D01*
X116889981Y-56432286D01*
X116899358Y-56454925D01*
X116912971Y-56475298D01*
X116918200Y-56481670D01*
X116920499Y-56485971D01*
X116921917Y-56490645D01*
X116923000Y-56501641D01*
X116923000Y-56790359D01*
X116921917Y-56801355D01*
X116920499Y-56806029D01*
X116918200Y-56810330D01*
X116912971Y-56816702D01*
X116899357Y-56837076D01*
X116889980Y-56859715D01*
X116885200Y-56883749D01*
X116885200Y-56908253D01*
X116889981Y-56932286D01*
X116899358Y-56954925D01*
X116912971Y-56975298D01*
X116918200Y-56981670D01*
X116920499Y-56985971D01*
X116921917Y-56990645D01*
X116923000Y-57001641D01*
X116923000Y-57290359D01*
X116921917Y-57301355D01*
X116920499Y-57306029D01*
X116918200Y-57310330D01*
X116912971Y-57316702D01*
X116899357Y-57337076D01*
X116889980Y-57359715D01*
X116885200Y-57383749D01*
X116885200Y-57408253D01*
X116889981Y-57432286D01*
X116899358Y-57454925D01*
X116912971Y-57475298D01*
X116918200Y-57481670D01*
X116920499Y-57485971D01*
X116921917Y-57490645D01*
X116923000Y-57501641D01*
X116923000Y-57790359D01*
X116921917Y-57801355D01*
X116920499Y-57806029D01*
X116918200Y-57810330D01*
X116912971Y-57816702D01*
X116899357Y-57837076D01*
X116889980Y-57859715D01*
X116885200Y-57883749D01*
X116885200Y-57908253D01*
X116889981Y-57932286D01*
X116899358Y-57954925D01*
X116912971Y-57975298D01*
X116918200Y-57981670D01*
X116920499Y-57985971D01*
X116921917Y-57990645D01*
X116923000Y-58001641D01*
X116923000Y-58290359D01*
X116921917Y-58301355D01*
X116920499Y-58306029D01*
X116918200Y-58310330D01*
X116912971Y-58316702D01*
X116899357Y-58337076D01*
X116889980Y-58359715D01*
X116885200Y-58383749D01*
X116885200Y-58408253D01*
X116889981Y-58432286D01*
X116899358Y-58454925D01*
X116912971Y-58475298D01*
X116918200Y-58481670D01*
X116920499Y-58485971D01*
X116921917Y-58490645D01*
X116923000Y-58501641D01*
X116923000Y-58720001D01*
X116925402Y-58744387D01*
X116932515Y-58767836D01*
X116944066Y-58789447D01*
X116959611Y-58808389D01*
X116978553Y-58823934D01*
X117000164Y-58835485D01*
X117023613Y-58842598D01*
X117047999Y-58845000D01*
X117266359Y-58845000D01*
X117277355Y-58846083D01*
X117282029Y-58847501D01*
X117286330Y-58849800D01*
X117292702Y-58855029D01*
X117313076Y-58868643D01*
X117335715Y-58878020D01*
X117359749Y-58882800D01*
X117384253Y-58882800D01*
X117408286Y-58878019D01*
X117430925Y-58868642D01*
X117451298Y-58855029D01*
X117457670Y-58849800D01*
X117461971Y-58847501D01*
X117466645Y-58846083D01*
X117477641Y-58845000D01*
X117766359Y-58845000D01*
X117777355Y-58846083D01*
X117782029Y-58847501D01*
X117786330Y-58849800D01*
X117792702Y-58855029D01*
X117813076Y-58868643D01*
X117835715Y-58878020D01*
X117859749Y-58882800D01*
X117884253Y-58882800D01*
X117908286Y-58878019D01*
X117930925Y-58868642D01*
X117951298Y-58855029D01*
X117957670Y-58849800D01*
X117961971Y-58847501D01*
X117966645Y-58846083D01*
X117977641Y-58845000D01*
X118266359Y-58845000D01*
X118277355Y-58846083D01*
X118282029Y-58847501D01*
X118286330Y-58849800D01*
X118292702Y-58855029D01*
X118313076Y-58868643D01*
X118335715Y-58878020D01*
X118359749Y-58882800D01*
X118384253Y-58882800D01*
X118408286Y-58878019D01*
X118430925Y-58868642D01*
X118451298Y-58855029D01*
X118457670Y-58849800D01*
X118461971Y-58847501D01*
X118466645Y-58846083D01*
X118477641Y-58845000D01*
X118766359Y-58845000D01*
X118777355Y-58846083D01*
X118782029Y-58847501D01*
X118786330Y-58849800D01*
X118792702Y-58855029D01*
X118813076Y-58868643D01*
X118835715Y-58878020D01*
X118859749Y-58882800D01*
X118884253Y-58882800D01*
X118908286Y-58878019D01*
X118930925Y-58868642D01*
X118951298Y-58855029D01*
X118957670Y-58849800D01*
X118961971Y-58847501D01*
X118966645Y-58846083D01*
X118977641Y-58845000D01*
X119266359Y-58845000D01*
X119277355Y-58846083D01*
X119282029Y-58847501D01*
X119286330Y-58849800D01*
X119292702Y-58855029D01*
X119313076Y-58868643D01*
X119335715Y-58878020D01*
X119359749Y-58882800D01*
X119384253Y-58882800D01*
X119408286Y-58878019D01*
X119430925Y-58868642D01*
X119451298Y-58855029D01*
X119457670Y-58849800D01*
X119461971Y-58847501D01*
X119466645Y-58846083D01*
X119477641Y-58845000D01*
X119766359Y-58845000D01*
X119777355Y-58846083D01*
X119782029Y-58847501D01*
X119786330Y-58849800D01*
X119792702Y-58855029D01*
X119813076Y-58868643D01*
X119835715Y-58878020D01*
X119859749Y-58882800D01*
X119884253Y-58882800D01*
X119908286Y-58878019D01*
X119930925Y-58868642D01*
X119951298Y-58855029D01*
X119957670Y-58849800D01*
X119961971Y-58847501D01*
X119966645Y-58846083D01*
X119977641Y-58845000D01*
X120266359Y-58845000D01*
X120277355Y-58846083D01*
X120282029Y-58847501D01*
X120286330Y-58849800D01*
X120292702Y-58855029D01*
X120313076Y-58868643D01*
X120335715Y-58878020D01*
X120359749Y-58882800D01*
X120384253Y-58882800D01*
X120408286Y-58878019D01*
X120430925Y-58868642D01*
X120451298Y-58855029D01*
X120457670Y-58849800D01*
X120461971Y-58847501D01*
X120466645Y-58846083D01*
X120477641Y-58845000D01*
X120696001Y-58845000D01*
X120720387Y-58842598D01*
X120743836Y-58835485D01*
X120765447Y-58823934D01*
X120784389Y-58808389D01*
X120799934Y-58789447D01*
X120811485Y-58767836D01*
X120818598Y-58744387D01*
X120821000Y-58720001D01*
X120821000Y-58501641D01*
X120822083Y-58490645D01*
X120823501Y-58485971D01*
X120825800Y-58481670D01*
X120831029Y-58475298D01*
X120844643Y-58454924D01*
X120854020Y-58432285D01*
X120858800Y-58408251D01*
X120858800Y-58383747D01*
X120854019Y-58359714D01*
X120844642Y-58337075D01*
X120831029Y-58316702D01*
X120825800Y-58310330D01*
X120823501Y-58306029D01*
X120822083Y-58301355D01*
X120821000Y-58290359D01*
X120821000Y-58001641D01*
X120822083Y-57990645D01*
X120823501Y-57985971D01*
X120825800Y-57981670D01*
X120831029Y-57975298D01*
X120844643Y-57954924D01*
X120854020Y-57932285D01*
X120858800Y-57908251D01*
X120858800Y-57883747D01*
X120854019Y-57859714D01*
X120844642Y-57837075D01*
X120831029Y-57816702D01*
X120825800Y-57810330D01*
X120823501Y-57806029D01*
X120822083Y-57801355D01*
X120821000Y-57790359D01*
X120821000Y-57501641D01*
X120822083Y-57490645D01*
X120823501Y-57485971D01*
X120825800Y-57481670D01*
X120831029Y-57475298D01*
X120844643Y-57454924D01*
X120854020Y-57432285D01*
X120858800Y-57408251D01*
X120858800Y-57383747D01*
X120854019Y-57359714D01*
X120844642Y-57337075D01*
X120831029Y-57316702D01*
X120825800Y-57310330D01*
X120823501Y-57306029D01*
X120822083Y-57301355D01*
X120821000Y-57290359D01*
X120821000Y-57001641D01*
X120822083Y-56990645D01*
X120823501Y-56985971D01*
X120825800Y-56981670D01*
X120831029Y-56975298D01*
X120844643Y-56954924D01*
X120854020Y-56932285D01*
X120858800Y-56908251D01*
X120858800Y-56883747D01*
X120854019Y-56859714D01*
X120844642Y-56837075D01*
X120831029Y-56816702D01*
X120825800Y-56810330D01*
X120823501Y-56806029D01*
X120822083Y-56801355D01*
X120821000Y-56790359D01*
X120821000Y-56501641D01*
X120822083Y-56490645D01*
X120823501Y-56485971D01*
X120825800Y-56481670D01*
X120831029Y-56475298D01*
X120844643Y-56454924D01*
X120854020Y-56432285D01*
X120858800Y-56408251D01*
X120858800Y-56383747D01*
X120854019Y-56359714D01*
X120844642Y-56337075D01*
X120831029Y-56316702D01*
X120825800Y-56310330D01*
X120823501Y-56306029D01*
X120822083Y-56301355D01*
X120821000Y-56290359D01*
X120821000Y-56001641D01*
X120822083Y-55990645D01*
X120823501Y-55985971D01*
X120825800Y-55981670D01*
X120831029Y-55975298D01*
X120844643Y-55954924D01*
X120854020Y-55932285D01*
X120858800Y-55908251D01*
X120858800Y-55883747D01*
X120854019Y-55859714D01*
X120844642Y-55837075D01*
X120831029Y-55816702D01*
X120825800Y-55810330D01*
X120823501Y-55806029D01*
X120822083Y-55801355D01*
X120821000Y-55790359D01*
X120821000Y-55501641D01*
X120822083Y-55490645D01*
X120823501Y-55485971D01*
X120825800Y-55481670D01*
X120831029Y-55475298D01*
X120844643Y-55454924D01*
X120854020Y-55432285D01*
X120858800Y-55408251D01*
X120858800Y-55383747D01*
X120854019Y-55359714D01*
X120844642Y-55337075D01*
X120831029Y-55316702D01*
X120825800Y-55310330D01*
X120823501Y-55306029D01*
X120822083Y-55301355D01*
X120821000Y-55290359D01*
X120821000Y-55071999D01*
X120818598Y-55047613D01*
X120811485Y-55024164D01*
X120799934Y-55002553D01*
X120784389Y-54983611D01*
X120765447Y-54968066D01*
X120743836Y-54956515D01*
X120720387Y-54949402D01*
X120696001Y-54947000D01*
X120477641Y-54947000D01*
X120466645Y-54945917D01*
X120461971Y-54944499D01*
X120457670Y-54942200D01*
X120451298Y-54936971D01*
X120430924Y-54923357D01*
X120408285Y-54913980D01*
X120384251Y-54909200D01*
X120359747Y-54909200D01*
X120335714Y-54913981D01*
X120313075Y-54923358D01*
X120292702Y-54936971D01*
X120286330Y-54942200D01*
X120282029Y-54944499D01*
X120277355Y-54945917D01*
X120266359Y-54947000D01*
X119977641Y-54947000D01*
X119966645Y-54945917D01*
X119961971Y-54944499D01*
X119957670Y-54942200D01*
X119951298Y-54936971D01*
X119930924Y-54923357D01*
X119908285Y-54913980D01*
X119884251Y-54909200D01*
X119859747Y-54909200D01*
X119835714Y-54913981D01*
X119813075Y-54923358D01*
X119792702Y-54936971D01*
X119786330Y-54942200D01*
X119782029Y-54944499D01*
X119777355Y-54945917D01*
X119766359Y-54947000D01*
X119477641Y-54947000D01*
X119466645Y-54945917D01*
X119461971Y-54944499D01*
X119457670Y-54942200D01*
X119451298Y-54936971D01*
X119430924Y-54923357D01*
X119408285Y-54913980D01*
X119384251Y-54909200D01*
X119359747Y-54909200D01*
X119335714Y-54913981D01*
X119313075Y-54923358D01*
X119292702Y-54936971D01*
X119286330Y-54942200D01*
X119282029Y-54944499D01*
X119277355Y-54945917D01*
X119266359Y-54947000D01*
X118977641Y-54947000D01*
X118966645Y-54945917D01*
X118961971Y-54944499D01*
X118957670Y-54942200D01*
X118951298Y-54936971D01*
X118930924Y-54923357D01*
X118908285Y-54913980D01*
X118884251Y-54909200D01*
X118859747Y-54909200D01*
X118835714Y-54913981D01*
X118813075Y-54923358D01*
X118792702Y-54936971D01*
X118786330Y-54942200D01*
X118782029Y-54944499D01*
X118777355Y-54945917D01*
X118766359Y-54947000D01*
X118477641Y-54947000D01*
X118466645Y-54945917D01*
X118461971Y-54944499D01*
X118457670Y-54942200D01*
X118451298Y-54936971D01*
X118430924Y-54923357D01*
X118408285Y-54913980D01*
X118384251Y-54909200D01*
X118359747Y-54909200D01*
X118335714Y-54913981D01*
X118313075Y-54923358D01*
X118292702Y-54936971D01*
X118286330Y-54942200D01*
X118282029Y-54944499D01*
X118277355Y-54945917D01*
X118266359Y-54947000D01*
X117977641Y-54947000D01*
X117966645Y-54945917D01*
X117961971Y-54944499D01*
X117957670Y-54942200D01*
X117951298Y-54936971D01*
X117930924Y-54923357D01*
X117908285Y-54913980D01*
X117884251Y-54909200D01*
X117859747Y-54909200D01*
X117835714Y-54913981D01*
X117813075Y-54923358D01*
X117792702Y-54936971D01*
X117786330Y-54942200D01*
X117782029Y-54944499D01*
X117777355Y-54945917D01*
X117766359Y-54947000D01*
X117477641Y-54947000D01*
X117466645Y-54945917D01*
X117461971Y-54944499D01*
X117457670Y-54942200D01*
X117451298Y-54936971D01*
X117430924Y-54923357D01*
X117408285Y-54913980D01*
X117384251Y-54909200D01*
X117359747Y-54909200D01*
X117335714Y-54913981D01*
X117313075Y-54923358D01*
X117292702Y-54936971D01*
X117286330Y-54942200D01*
X117282029Y-54944499D01*
X117277355Y-54945917D01*
X117266359Y-54947000D01*
X117047999Y-54947000D01*
X117023613Y-54949402D01*
X117000164Y-54956515D01*
X116978553Y-54968066D01*
X116959611Y-54983611D01*
X116944066Y-55002553D01*
X116932515Y-55024164D01*
X116925402Y-55047613D01*
X116923000Y-55071999D01*
X116923000Y-55290359D01*
X116921917Y-55301355D01*
X116920499Y-55306029D01*
X116918200Y-55310330D01*
X116912971Y-55316702D01*
X116899357Y-55337076D01*
X116889980Y-55359715D01*
X116885200Y-55383749D01*
X115983800Y-55383749D01*
X115983800Y-55383747D01*
X115979019Y-55359714D01*
X115969642Y-55337075D01*
X115956029Y-55316702D01*
X115950800Y-55310330D01*
X115948501Y-55306029D01*
X115947083Y-55301355D01*
X115946000Y-55290359D01*
X115946000Y-55001641D01*
X115947083Y-54990645D01*
X115948501Y-54985971D01*
X115950800Y-54981669D01*
X115953896Y-54977896D01*
X115957669Y-54974800D01*
X115961971Y-54972501D01*
X115966645Y-54971083D01*
X115977641Y-54970000D01*
X116821001Y-54970000D01*
X116845387Y-54967598D01*
X116868836Y-54960485D01*
X116890447Y-54948934D01*
X116909389Y-54933389D01*
X116924934Y-54914447D01*
X116936485Y-54892836D01*
X116943598Y-54869387D01*
X116946000Y-54845001D01*
X116946000Y-54001641D01*
X116947083Y-53990645D01*
X116948501Y-53985971D01*
X116950800Y-53981669D01*
X116953896Y-53977896D01*
X116957669Y-53974800D01*
X116961971Y-53972501D01*
X116966645Y-53971083D01*
X116977641Y-53970000D01*
X117266359Y-53970000D01*
X117277355Y-53971083D01*
X117277355Y-53971083D01*
G37*
G36*
X120349417Y-55298540D02*
G01*
X120378081Y-55307235D01*
X120404495Y-55321354D01*
X120427646Y-55340354D01*
X120446646Y-55363505D01*
X120460765Y-55389919D01*
X120469460Y-55418583D01*
X120473000Y-55454527D01*
X120473000Y-58337473D01*
X120469460Y-58373417D01*
X120460765Y-58402081D01*
X120446646Y-58428495D01*
X120427646Y-58451646D01*
X120404495Y-58470646D01*
X120378081Y-58484765D01*
X120349417Y-58493460D01*
X120313473Y-58497000D01*
X117430527Y-58497000D01*
X117394583Y-58493460D01*
X117365919Y-58484765D01*
X117339505Y-58470646D01*
X117316354Y-58451646D01*
X117297354Y-58428495D01*
X117283235Y-58402081D01*
X117274540Y-58373417D01*
X117271000Y-58337473D01*
X117271000Y-55454527D01*
X117274540Y-55418583D01*
X117283235Y-55389919D01*
X117297354Y-55363505D01*
X117316354Y-55340354D01*
X117339505Y-55321354D01*
X117365919Y-55307235D01*
X117394583Y-55298540D01*
X117430527Y-55295000D01*
X120313473Y-55295000D01*
X120349417Y-55298540D01*
X120349417Y-55298540D01*
G37*
G36*
X122628170Y-58008803D02*
G01*
X122639875Y-58012354D01*
X122650665Y-58018121D01*
X122660119Y-58025881D01*
X122667879Y-58035335D01*
X122673646Y-58046125D01*
X122677197Y-58057830D01*
X122679000Y-58076138D01*
X122679000Y-58499862D01*
X122677197Y-58518170D01*
X122673645Y-58529877D01*
X122663383Y-58549077D01*
X122654006Y-58571716D01*
X122649226Y-58595749D01*
X122649226Y-58620253D01*
X122654007Y-58644286D01*
X122663383Y-58666923D01*
X122673645Y-58686123D01*
X122677197Y-58697830D01*
X122679000Y-58716138D01*
X122679000Y-59139862D01*
X122677197Y-59158170D01*
X122673646Y-59169875D01*
X122667879Y-59180665D01*
X122660119Y-59190119D01*
X122650665Y-59197879D01*
X122639875Y-59203646D01*
X122628170Y-59207197D01*
X122609862Y-59209000D01*
X122246138Y-59209000D01*
X122227830Y-59207197D01*
X122216125Y-59203646D01*
X122205335Y-59197879D01*
X122195881Y-59190119D01*
X122188121Y-59180665D01*
X122182354Y-59169875D01*
X122178803Y-59158170D01*
X122177000Y-59139862D01*
X122177000Y-58716138D01*
X122178803Y-58697830D01*
X122182355Y-58686123D01*
X122192617Y-58666923D01*
X122201994Y-58644284D01*
X122206774Y-58620251D01*
X122206774Y-58595747D01*
X122201993Y-58571714D01*
X122192617Y-58549077D01*
X122182355Y-58529877D01*
X122178803Y-58518170D01*
X122177000Y-58499862D01*
X122177000Y-58076138D01*
X122178803Y-58057830D01*
X122182354Y-58046125D01*
X122188121Y-58035335D01*
X122195881Y-58025881D01*
X122205335Y-58018121D01*
X122216125Y-58012354D01*
X122227830Y-58008803D01*
X122246138Y-58007000D01*
X122609862Y-58007000D01*
X122628170Y-58008803D01*
X122628170Y-58008803D01*
G37*
G36*
X126602442Y-57017518D02*
G01*
X126668627Y-57024037D01*
X126838466Y-57075557D01*
X126994991Y-57159222D01*
X127030729Y-57188552D01*
X127132186Y-57271814D01*
X127204323Y-57359715D01*
X127244778Y-57409009D01*
X127328443Y-57565534D01*
X127379963Y-57735373D01*
X127397359Y-57912000D01*
X127379963Y-58088627D01*
X127328443Y-58258466D01*
X127244778Y-58414991D01*
X127239544Y-58421368D01*
X127132186Y-58552186D01*
X127030729Y-58635448D01*
X126994991Y-58664778D01*
X126838466Y-58748443D01*
X126668627Y-58799963D01*
X126607037Y-58806029D01*
X126536260Y-58813000D01*
X126447740Y-58813000D01*
X126376963Y-58806029D01*
X126315373Y-58799963D01*
X126145534Y-58748443D01*
X125989009Y-58664778D01*
X125953271Y-58635448D01*
X125851814Y-58552186D01*
X125744456Y-58421368D01*
X125739222Y-58414991D01*
X125655557Y-58258466D01*
X125604037Y-58088627D01*
X125586641Y-57912000D01*
X125604037Y-57735373D01*
X125655557Y-57565534D01*
X125739222Y-57409009D01*
X125779677Y-57359715D01*
X125851814Y-57271814D01*
X125953271Y-57188552D01*
X125989009Y-57159222D01*
X126145534Y-57075557D01*
X126315373Y-57024037D01*
X126381558Y-57017518D01*
X126447740Y-57011000D01*
X126536260Y-57011000D01*
X126602442Y-57017518D01*
X126602442Y-57017518D01*
G37*
G36*
X126602443Y-54477519D02*
G01*
X126668627Y-54484037D01*
X126838466Y-54535557D01*
X126994991Y-54619222D01*
X127030729Y-54648552D01*
X127132186Y-54731814D01*
X127215448Y-54833271D01*
X127244778Y-54869009D01*
X127244779Y-54869011D01*
X127304997Y-54981669D01*
X127328443Y-55025534D01*
X127379963Y-55195373D01*
X127397359Y-55372000D01*
X127379963Y-55548627D01*
X127328443Y-55718466D01*
X127244778Y-55874991D01*
X127237592Y-55883747D01*
X127132186Y-56012186D01*
X127030729Y-56095448D01*
X126994991Y-56124778D01*
X126838466Y-56208443D01*
X126668627Y-56259963D01*
X126602443Y-56266481D01*
X126536260Y-56273000D01*
X126447740Y-56273000D01*
X126381557Y-56266481D01*
X126315373Y-56259963D01*
X126145534Y-56208443D01*
X125989009Y-56124778D01*
X125953271Y-56095448D01*
X125851814Y-56012186D01*
X125746408Y-55883747D01*
X125739222Y-55874991D01*
X125655557Y-55718466D01*
X125604037Y-55548627D01*
X125586641Y-55372000D01*
X125604037Y-55195373D01*
X125655557Y-55025534D01*
X125679004Y-54981669D01*
X125739221Y-54869011D01*
X125739222Y-54869009D01*
X125768552Y-54833271D01*
X125851814Y-54731814D01*
X125953271Y-54648552D01*
X125989009Y-54619222D01*
X126145534Y-54535557D01*
X126315373Y-54484037D01*
X126381557Y-54477519D01*
X126447740Y-54471000D01*
X126536260Y-54471000D01*
X126602443Y-54477519D01*
X126602443Y-54477519D01*
G37*
G36*
X126602443Y-51937519D02*
G01*
X126668627Y-51944037D01*
X126838466Y-51995557D01*
X126994991Y-52079222D01*
X127023689Y-52102774D01*
X127132186Y-52191814D01*
X127215448Y-52293271D01*
X127244778Y-52329009D01*
X127328443Y-52485534D01*
X127379963Y-52655373D01*
X127397359Y-52832000D01*
X127379963Y-53008627D01*
X127328443Y-53178466D01*
X127244778Y-53334991D01*
X127215448Y-53370729D01*
X127132186Y-53472186D01*
X127030729Y-53555448D01*
X126994991Y-53584778D01*
X126838466Y-53668443D01*
X126668627Y-53719963D01*
X126602443Y-53726481D01*
X126536260Y-53733000D01*
X126447740Y-53733000D01*
X126381557Y-53726481D01*
X126315373Y-53719963D01*
X126145534Y-53668443D01*
X125989009Y-53584778D01*
X125953271Y-53555448D01*
X125851814Y-53472186D01*
X125768552Y-53370729D01*
X125739222Y-53334991D01*
X125655557Y-53178466D01*
X125604037Y-53008627D01*
X125586641Y-52832000D01*
X125604037Y-52655373D01*
X125655557Y-52485534D01*
X125739222Y-52329009D01*
X125768552Y-52293271D01*
X125851814Y-52191814D01*
X125960311Y-52102774D01*
X125989009Y-52079222D01*
X126145534Y-51995557D01*
X126315373Y-51944037D01*
X126381557Y-51937519D01*
X126447740Y-51931000D01*
X126536260Y-51931000D01*
X126602443Y-51937519D01*
X126602443Y-51937519D01*
G37*
G36*
X120264000Y-52905000D02*
G01*
X119512000Y-52905000D01*
X119512000Y-51743000D01*
X120264000Y-51743000D01*
X120264000Y-52905000D01*
X120264000Y-52905000D01*
G37*
G36*
X118364000Y-52905000D02*
G01*
X117612000Y-52905000D01*
X117612000Y-51743000D01*
X118364000Y-51743000D01*
X118364000Y-52905000D01*
X118364000Y-52905000D01*
G37*
G36*
X109763000Y-52729000D02*
G01*
X107661000Y-52729000D01*
X107661000Y-48127000D01*
X109763000Y-48127000D01*
X109763000Y-52729000D01*
X109763000Y-52729000D01*
G37*
G36*
X121576170Y-52074803D02*
G01*
X121587877Y-52078355D01*
X121607077Y-52088617D01*
X121629716Y-52097994D01*
X121653749Y-52102774D01*
X121678253Y-52102774D01*
X121702286Y-52097993D01*
X121724923Y-52088617D01*
X121744123Y-52078355D01*
X121755830Y-52074803D01*
X121774138Y-52073000D01*
X122197862Y-52073000D01*
X122216170Y-52074803D01*
X122227875Y-52078354D01*
X122238665Y-52084121D01*
X122248119Y-52091881D01*
X122255879Y-52101335D01*
X122261646Y-52112125D01*
X122265197Y-52123830D01*
X122267000Y-52142138D01*
X122267000Y-52505862D01*
X122265197Y-52524170D01*
X122261646Y-52535875D01*
X122255879Y-52546665D01*
X122248119Y-52556119D01*
X122238665Y-52563879D01*
X122227875Y-52569646D01*
X122216170Y-52573197D01*
X122197862Y-52575000D01*
X121774138Y-52575000D01*
X121755830Y-52573197D01*
X121744123Y-52569645D01*
X121724923Y-52559383D01*
X121702284Y-52550006D01*
X121678251Y-52545226D01*
X121653747Y-52545226D01*
X121629714Y-52550007D01*
X121607077Y-52559383D01*
X121587877Y-52569645D01*
X121576170Y-52573197D01*
X121557862Y-52575000D01*
X121134138Y-52575000D01*
X121115830Y-52573197D01*
X121104125Y-52569646D01*
X121093335Y-52563879D01*
X121083881Y-52556119D01*
X121076121Y-52546665D01*
X121070354Y-52535875D01*
X121066803Y-52524170D01*
X121065000Y-52505862D01*
X121065000Y-52142138D01*
X121066803Y-52123830D01*
X121070354Y-52112125D01*
X121076121Y-52101335D01*
X121083881Y-52091881D01*
X121093335Y-52084121D01*
X121104125Y-52078354D01*
X121115830Y-52074803D01*
X121134138Y-52073000D01*
X121557862Y-52073000D01*
X121576170Y-52074803D01*
X121576170Y-52074803D01*
G37*
G36*
X123303591Y-50278085D02*
G01*
X123337569Y-50288393D01*
X123368890Y-50305134D01*
X123396339Y-50327661D01*
X123418866Y-50355110D01*
X123435607Y-50386431D01*
X123445915Y-50420409D01*
X123450000Y-50461890D01*
X123450000Y-51138110D01*
X123445915Y-51179591D01*
X123435607Y-51213569D01*
X123418866Y-51244890D01*
X123396339Y-51272339D01*
X123368890Y-51294866D01*
X123337569Y-51311607D01*
X123303591Y-51321915D01*
X123262110Y-51326000D01*
X122660890Y-51326000D01*
X122619409Y-51321915D01*
X122585431Y-51311607D01*
X122554110Y-51294866D01*
X122526661Y-51272339D01*
X122504134Y-51244890D01*
X122487393Y-51213569D01*
X122477085Y-51179591D01*
X122473000Y-51138110D01*
X122473000Y-50461890D01*
X122477085Y-50420409D01*
X122487393Y-50386431D01*
X122504134Y-50355110D01*
X122526661Y-50327661D01*
X122554110Y-50305134D01*
X122585431Y-50288393D01*
X122619409Y-50278085D01*
X122660890Y-50274000D01*
X123262110Y-50274000D01*
X123303591Y-50278085D01*
X123303591Y-50278085D01*
G37*
G36*
X121728591Y-50278085D02*
G01*
X121762569Y-50288393D01*
X121793890Y-50305134D01*
X121821339Y-50327661D01*
X121843866Y-50355110D01*
X121860607Y-50386431D01*
X121870915Y-50420409D01*
X121875000Y-50461890D01*
X121875000Y-51138110D01*
X121870915Y-51179591D01*
X121860607Y-51213569D01*
X121843866Y-51244890D01*
X121821339Y-51272339D01*
X121793890Y-51294866D01*
X121762569Y-51311607D01*
X121728591Y-51321915D01*
X121687110Y-51326000D01*
X121085890Y-51326000D01*
X121044409Y-51321915D01*
X121010431Y-51311607D01*
X120979110Y-51294866D01*
X120951661Y-51272339D01*
X120929134Y-51244890D01*
X120912393Y-51213569D01*
X120902085Y-51179591D01*
X120898000Y-51138110D01*
X120898000Y-50461890D01*
X120902085Y-50420409D01*
X120912393Y-50386431D01*
X120929134Y-50355110D01*
X120951661Y-50327661D01*
X120979110Y-50305134D01*
X121010431Y-50288393D01*
X121044409Y-50278085D01*
X121085890Y-50274000D01*
X121687110Y-50274000D01*
X121728591Y-50278085D01*
X121728591Y-50278085D01*
G37*
G36*
X127393000Y-51193000D02*
G01*
X125591000Y-51193000D01*
X125591000Y-49391000D01*
X127393000Y-49391000D01*
X127393000Y-51193000D01*
X127393000Y-51193000D01*
G37*
G36*
X120264000Y-50705000D02*
G01*
X117612000Y-50705000D01*
X117612000Y-49543000D01*
X120264000Y-49543000D01*
X120264000Y-50705000D01*
X120264000Y-50705000D01*
G37*
G36*
X112468170Y-48005803D02*
G01*
X112479875Y-48009354D01*
X112490665Y-48015121D01*
X112500119Y-48022881D01*
X112507879Y-48032335D01*
X112513646Y-48043125D01*
X112517197Y-48054830D01*
X112519000Y-48073138D01*
X112519000Y-48496862D01*
X112517197Y-48515170D01*
X112513645Y-48526877D01*
X112503383Y-48546077D01*
X112494006Y-48568716D01*
X112489226Y-48592749D01*
X112489226Y-48617253D01*
X112494007Y-48641286D01*
X112503383Y-48663923D01*
X112513645Y-48683123D01*
X112517197Y-48694830D01*
X112519000Y-48713138D01*
X112519000Y-49136862D01*
X112517197Y-49155170D01*
X112513646Y-49166875D01*
X112507879Y-49177665D01*
X112500119Y-49187119D01*
X112490665Y-49194879D01*
X112479875Y-49200646D01*
X112468170Y-49204197D01*
X112449862Y-49206000D01*
X112086138Y-49206000D01*
X112067830Y-49204197D01*
X112056125Y-49200646D01*
X112045335Y-49194879D01*
X112035881Y-49187119D01*
X112028121Y-49177665D01*
X112022354Y-49166875D01*
X112018803Y-49155170D01*
X112017000Y-49136862D01*
X112017000Y-48713138D01*
X112018803Y-48694830D01*
X112022355Y-48683123D01*
X112032617Y-48663923D01*
X112041994Y-48641284D01*
X112046774Y-48617251D01*
X112046774Y-48592747D01*
X112041993Y-48568714D01*
X112032617Y-48546077D01*
X112022355Y-48526877D01*
X112018803Y-48515170D01*
X112017000Y-48496862D01*
X112017000Y-48073138D01*
X112018803Y-48054830D01*
X112022354Y-48043125D01*
X112028121Y-48032335D01*
X112035881Y-48022881D01*
X112045335Y-48015121D01*
X112056125Y-48009354D01*
X112067830Y-48005803D01*
X112086138Y-48004000D01*
X112449862Y-48004000D01*
X112468170Y-48005803D01*
X112468170Y-48005803D01*
G37*
G36*
X117182091Y-47738085D02*
G01*
X117216069Y-47748393D01*
X117247390Y-47765134D01*
X117274839Y-47787661D01*
X117297366Y-47815110D01*
X117314107Y-47846431D01*
X117324415Y-47880409D01*
X117328500Y-47921890D01*
X117328500Y-48598110D01*
X117324415Y-48639591D01*
X117314107Y-48673569D01*
X117297366Y-48704890D01*
X117274839Y-48732339D01*
X117247390Y-48754866D01*
X117216069Y-48771607D01*
X117182091Y-48781915D01*
X117140610Y-48786000D01*
X116539390Y-48786000D01*
X116497909Y-48781915D01*
X116463931Y-48771607D01*
X116432610Y-48754866D01*
X116405161Y-48732339D01*
X116382634Y-48704890D01*
X116365893Y-48673569D01*
X116355585Y-48639591D01*
X116351500Y-48598110D01*
X116351500Y-47921890D01*
X116355585Y-47880409D01*
X116365893Y-47846431D01*
X116382634Y-47815110D01*
X116405161Y-47787661D01*
X116432610Y-47765134D01*
X116463931Y-47748393D01*
X116497909Y-47738085D01*
X116539390Y-47734000D01*
X117140610Y-47734000D01*
X117182091Y-47738085D01*
X117182091Y-47738085D01*
G37*
G36*
X115607091Y-47738085D02*
G01*
X115641069Y-47748393D01*
X115672390Y-47765134D01*
X115699839Y-47787661D01*
X115722366Y-47815110D01*
X115739107Y-47846431D01*
X115749415Y-47880409D01*
X115753500Y-47921890D01*
X115753500Y-48598110D01*
X115749415Y-48639591D01*
X115739107Y-48673569D01*
X115722366Y-48704890D01*
X115699839Y-48732339D01*
X115672390Y-48754866D01*
X115641069Y-48771607D01*
X115607091Y-48781915D01*
X115565610Y-48786000D01*
X114964390Y-48786000D01*
X114922909Y-48781915D01*
X114888931Y-48771607D01*
X114857610Y-48754866D01*
X114830161Y-48732339D01*
X114807634Y-48704890D01*
X114790893Y-48673569D01*
X114780585Y-48639591D01*
X114776500Y-48598110D01*
X114776500Y-47921890D01*
X114780585Y-47880409D01*
X114790893Y-47846431D01*
X114807634Y-47815110D01*
X114830161Y-47787661D01*
X114857610Y-47765134D01*
X114888931Y-47748393D01*
X114922909Y-47738085D01*
X114964390Y-47734000D01*
X115565610Y-47734000D01*
X115607091Y-47738085D01*
X115607091Y-47738085D01*
G37*
M02*
